<?xml version="1.0" standalone="no"?>
<!DOCTYPE svg PUBLIC "-//W3C//DTD SVG 20010904//EN"
 "http://www.w3.org/TR/2001/REC-SVG-20010904/DTD/svg10.dtd">
<svg version="1.0" xmlns="http://www.w3.org/2000/svg"
 width="300.000000pt" height="169.000000pt" viewBox="0 0 300.000000 169.000000"
 preserveAspectRatio="xMidYMid meet">
<metadata>
Created by potrace 1.10, written by Peter Selinger 2001-2011
</metadata>
<g transform="translate(0.000000,169.000000) scale(0.100000,-0.100000)"
fill="#000000" stroke="none">
<path d="M1530 1304 c0 -6 5 -15 12 -22 10 -9 8 -16 -5 -29 -11 -11 -17 -13
-17 -5 0 18 -79 14 -125 -7 -22 -10 -55 -30 -73 -46 -18 -15 -35 -25 -38 -22
-8 8 59 59 106 80 25 11 66 21 91 21 31 1 45 5 42 13 -6 16 -85 6 -143 -19
-52 -22 -95 -60 -117 -103 -15 -29 -15 -29 2 -15 17 14 18 13 12 -2 -9 -25 -3
-23 40 17 58 53 118 78 176 72 34 -3 53 0 63 10 19 19 18 26 -6 48 -11 10 -20
14 -20 9z"/>
<path d="M1692 1199 c55 -56 81 -109 86 -181 2 -32 8 -55 13 -52 5 3 9 1 9 -4
0 -6 -7 -13 -16 -16 -21 -8 -21 -8 -28 10 -4 10 -2 13 6 8 8 -5 10 8 5 50 -7
68 -49 148 -97 185 -32 25 -32 24 12 -34 52 -69 71 -126 62 -183 -5 -34 -3
-42 14 -51 26 -14 54 11 48 42 -3 12 -7 41 -11 65 -8 60 -48 136 -87 165 -57
42 -61 41 -16 -4z"/>
<path d="M1435 1185 c-23 -11 -24 -13 -5 -7 14 4 48 7 77 7 28 0 46 3 40 7
-19 12 -80 8 -112 -7z"/>
<path d="M1585 1168 c38 -20 68 -53 86 -93 10 -22 19 -34 19 -27 0 36 -82 132
-113 132 -7 0 -3 -6 8 -12z"/>
<path d="M1372 1152 c-25 -19 -62 -71 -62 -87 0 -5 10 6 21 25 12 19 33 45 48
57 31 26 26 30 -7 5z"/>
<path d="M1430 1161 c-10 -7 3 -8 41 -4 99 10 158 -25 184 -108 11 -34 14 -38
14 -18 1 31 -33 84 -72 113 -31 23 -141 34 -167 17z"/>
<path d="M1376 1125 c-35 -32 -56 -84 -55 -132 1 -25 3 -30 6 -13 2 14 6 40 9
58 3 18 21 51 41 73 40 44 40 52 -1 14z"/>
<path d="M1450 1132 c-17 -14 -24 -32 -28 -73 -2 -30 -12 -65 -22 -79 -26 -38
-33 -69 -20 -85 18 -22 212 -21 230 0 15 18 6 58 -22 97 -13 19 -18 38 -15 55
15 77 -65 132 -123 85z m88 -18 c26 -18 30 -65 7 -84 -12 -10 -9 -17 20 -45
23 -21 35 -42 35 -59 l0 -26 -105 0 c-94 0 -105 2 -105 18 0 21 26 62 52 80
16 12 17 15 2 37 -39 60 34 121 94 79z"/>
<path d="M1466 1104 c-19 -18 -21 -55 -4 -72 27 -27 88 -3 88 34 0 18 -36 54
-54 54 -8 0 -22 -7 -30 -16z m54 -34 c0 -13 -7 -20 -19 -20 -22 0 -35 15 -26
30 12 19 45 11 45 -10z"/>
<path d="M1437 975 c-13 -14 -27 -34 -30 -45 -5 -19 0 -20 89 -20 107 0 116 9
65 61 -38 38 -88 40 -124 4z m107 -15 c18 -17 -7 -30 -55 -30 -53 0 -61 10
-27 34 21 15 63 13 82 -4z"/>
<path d="M1207 1055 c-17 -12 -17 -19 -7 -77 17 -90 46 -152 92 -193 58 -50
62 -43 8 13 -52 54 -80 120 -80 189 0 27 -4 42 -10 38 -5 -3 -10 -2 -10 3 0 6
8 13 17 16 19 8 38 -15 21 -25 -29 -18 23 -171 74 -214 53 -47 60 -47 21 0
-60 72 -86 138 -78 196 6 40 4 49 -12 57 -13 7 -24 6 -36 -3z"/>
<path d="M1661 965 c-2 -30 -48 -93 -84 -116 -18 -10 -28 -19 -23 -19 42 0
123 99 113 138 -4 13 -5 13 -6 -3z"/>
<path d="M1330 940 c0 -25 61 -91 96 -106 19 -8 53 -13 76 -13 l43 1 -50 8
c-71 10 -110 33 -139 82 -14 24 -26 36 -26 28z"/>
<path d="M1680 820 c-58 -52 -116 -74 -175 -67 -32 3 -50 0 -60 -10 -19 -18
-19 -28 1 -47 21 -22 27 -20 13 5 -9 17 -8 25 5 37 10 11 16 12 16 4 0 -7 16
-12 43 -12 67 0 181 64 200 113 8 22 9 23 -43 -23z"/>
<path d="M1711 808 c-40 -47 -118 -86 -190 -95 -28 -3 -48 -10 -45 -15 15 -24
155 17 211 62 26 20 67 79 61 85 -2 2 -19 -15 -37 -37z"/>
<path d="M1425 587 c-16 -11 -57 -14 -190 -12 -93 2 -186 6 -207 10 -31 6 -38
4 -51 -17 -27 -41 -30 -72 -9 -91 17 -16 42 -17 218 -16 109 0 339 0 509 -1
290 -2 311 -1 326 17 43 49 20 90 -54 98 -26 2 -53 7 -58 11 -18 11 -64 12
-83 2 -10 -6 -76 -12 -145 -14 -113 -3 -151 1 -216 21 -11 3 -29 -1 -40 -8z
m-391 -55 c10 -36 29 -44 24 -10 -3 19 2 22 40 25 42 2 42 2 42 -33 0 -22 -4
-33 -10 -29 -6 4 -8 15 -5 26 4 11 2 19 -4 19 -6 0 -11 -9 -11 -19 0 -11 -4
-23 -10 -26 -6 -4 -10 5 -10 19 0 14 -4 26 -10 26 -5 0 -10 -11 -10 -24 0 -25
-27 -32 -42 -11 -5 7 -14 6 -28 -3 -24 -15 -26 -3 -9 47 14 39 30 36 43 -7z
m440 32 c22 -8 20 -31 -4 -46 -11 -7 -20 -18 -20 -25 0 -7 -4 -13 -10 -13 -5
0 -10 20 -10 45 0 46 8 53 44 39z m388 -36 c5 -48 4 -53 -11 -43 -13 8 -15 85
-2 85 5 0 11 -19 13 -42z m36 2 c1 -22 -3 -40 -8 -40 -6 0 -10 18 -10 40 0 22
4 40 8 40 5 0 9 -18 10 -40z m-700 -11 c3 -26 -19 -46 -39 -33 -16 9 -10 24
14 34 17 7 18 9 5 9 -10 1 -18 6 -18 12 0 23 35 3 38 -22z m62 25 c0 -3 -5
-14 -10 -25 -7 -13 -7 -19 0 -19 5 0 10 -4 10 -9 0 -4 -11 -6 -25 -3 -22 4
-24 7 -13 20 10 12 10 16 1 19 -22 8 -14 23 12 23 14 0 25 -3 25 -6z m58 -23
c4 -29 -9 -44 -31 -35 -17 6 -23 44 -10 58 14 14 38 0 41 -23z m70 -8 c2 -19
-1 -33 -7 -33 -6 0 -11 11 -11 25 0 14 -4 25 -10 25 -5 0 -10 -12 -10 -26 0
-14 -4 -23 -10 -19 -10 6 -14 48 -5 57 3 3 16 5 28 4 17 -1 23 -8 25 -33z
m152 33 c0 -2 3 -11 6 -20 4 -12 0 -16 -17 -17 l-24 -1 25 -8 c23 -7 23 -8 6
-15 -26 -11 -49 20 -35 46 8 16 39 28 39 15z m100 -7 c0 -5 -6 -9 -12 -9 -9 0
-9 -3 1 -9 17 -11 7 -41 -14 -41 -8 0 -15 5 -15 10 0 6 5 10 11 10 8 0 8 5 -1
15 -17 21 -30 19 -30 -4 0 -11 -4 -23 -10 -26 -6 -4 -10 7 -10 27 0 32 2 33
40 35 22 0 40 -3 40 -8z m59 -8 c14 -24 -8 -55 -32 -45 -17 6 -24 44 -10 57
12 13 32 7 42 -12z m69 -20 c2 -21 0 -31 -7 -26 -6 3 -11 15 -11 26 0 10 -5
19 -11 19 -5 0 -9 -8 -7 -18 2 -11 0 -20 -4 -20 -5 -1 -8 0 -8 3 0 3 0 16 0
29 0 18 5 23 23 22 17 -1 23 -8 25 -35z m60 8 c3 -26 -19 -46 -39 -33 -16 9
-10 34 9 35 16 1 16 2 -1 6 -22 6 -11 25 11 21 10 -2 18 -15 20 -29z m125 24
c4 -3 0 -15 -10 -25 -15 -17 -15 -18 0 -18 10 0 17 6 17 14 0 7 7 19 16 26 12
11 18 10 31 -3 15 -15 15 -17 -8 -26 l-24 -10 25 0 c18 -1 21 -4 13 -12 -7 -7
-19 -8 -30 -4 -10 4 -30 7 -45 6 -30 -3 -36 7 -16 27 9 9 9 12 0 12 -7 0 -12
5 -12 10 0 11 33 14 43 3z"/>
</g>
</svg>
