<?xml version="1.0" standalone="no"?>
<!DOCTYPE svg PUBLIC "-//W3C//DTD SVG 20010904//EN"
 "http://www.w3.org/TR/2001/REC-SVG-20010904/DTD/svg10.dtd">
<svg version="1.0" xmlns="http://www.w3.org/2000/svg"
 width="239.000000pt" height="211.000000pt" viewBox="0 0 239.000000 211.000000"
 preserveAspectRatio="xMidYMid meet">
<metadata>
Created by potrace 1.10, written by Peter Selinger 2001-2011
</metadata>
<g transform="translate(0.000000,211.000000) scale(0.100000,-0.100000)"
fill="#000000" stroke="none">
<path d="M163 1278 c-16 -20 -46 -239 -35 -250 5 -5 22 -8 38 -6 28 3 28 3 46
128 9 69 17 128 18 133 0 12 -57 8 -67 -5z m8 -168 c-8 -43 -9 -44 -10 -10 -1
39 11 94 16 70 2 -8 -1 -35 -6 -60z"/>
<path d="M346 1274 c-3 -9 -6 -28 -6 -42 0 -41 -11 -50 -59 -54 -63 -4 -67
-28 -6 -28 l48 0 -7 -59 -7 -59 36 -4 c19 -2 35 -2 35 2 0 3 9 59 20 125 11
66 20 123 20 128 0 15 -68 7 -74 -9z m22 -126 c-13 -81 -13 -82 -19 -38 -3 28
0 53 8 67 7 12 13 32 13 44 0 12 3 20 6 17 3 -3 -1 -44 -8 -90z"/>
<path d="M450 1254 c0 -23 3 -25 33 -22 24 2 33 8 35 26 3 19 -1 22 -32 22
-32 0 -36 -3 -36 -26z"/>
<path d="M556 1268 c-2 -7 -10 -51 -16 -98 -7 -47 -15 -100 -17 -117 -5 -32
-5 -33 34 -33 l39 0 12 93 c7 50 12 102 12 115 0 20 5 22 50 22 46 0 50 -2 50
-24 0 -44 -10 -56 -46 -56 -26 0 -34 -4 -34 -17 0 -16 8 -18 61 -15 56 4 62 6
80 35 25 42 24 72 -3 91 -29 21 -216 23 -222 4z m24 -139 c-7 -38 -16 -69 -22
-69 -5 0 -6 9 -3 21 4 11 8 35 10 52 1 18 6 50 11 72 14 67 17 4 4 -76z"/>
<path d="M1304 1269 c-58 -13 -81 -42 -93 -117 -18 -115 5 -134 158 -130 l95
3 12 65 c6 36 10 68 7 73 -2 4 -33 7 -69 7 -50 0 -64 -3 -64 -15 0 -10 10 -15
28 -15 28 0 28 -1 22 -42 l-5 -43 -45 3 c-63 4 -73 17 -65 85 10 82 29 97 120
97 68 0 75 2 75 20 0 18 -6 20 -67 19 -38 -1 -86 -5 -109 -10z m-47 -138 c-2
-73 -17 -89 -17 -18 0 40 9 87 16 87 1 0 2 -31 1 -69z m193 -31 c0 -27 -4 -40
-14 -40 -9 0 -12 9 -9 28 11 64 23 71 23 12z"/>
<path d="M1797 1274 c-4 -4 -7 -20 -7 -36 0 -18 -5 -28 -15 -28 -17 0 -21 -26
-4 -32 8 -3 8 -20 0 -63 -17 -89 -16 -95 19 -95 36 0 44 17 55 103 5 38 12 57
21 57 8 0 14 7 14 15 0 8 -5 15 -11 15 -6 0 -9 14 -7 33 3 29 0 32 -27 35 -17
2 -34 0 -38 -4z m33 -98 c-5 -5 -10 -19 -10 -30 0 -10 -3 -16 -7 -12 -12 12
-12 50 0 74 l11 23 8 -22 c5 -13 4 -27 -2 -33z"/>
<path d="M451 1200 c-7 -5 -28 -97 -33 -150 -3 -22 1 -25 32 -25 l35 0 12 80
c7 44 11 85 8 92 -4 12 -38 14 -54 3z"/>
<path d="M843 1200 c-29 -12 -49 -46 -57 -97 -5 -35 -2 -47 14 -63 17 -17 33
-20 105 -20 68 0 85 3 85 15 0 11 -16 15 -67 17 l-68 3 -3 38 c-5 58 20 89 66
85 30 -2 38 -8 40 -25 3 -21 -1 -23 -37 -23 -31 0 -41 -4 -41 -16 0 -14 9 -16
61 -11 35 3 66 11 70 19 16 24 5 62 -21 75 -28 14 -114 16 -147 3z"/>
<path d="M1530 1193 c0 -18 5 -20 44 -16 69 8 96 -2 96 -36 0 -15 -5 -42 -11
-60 -10 -28 -15 -31 -55 -31 -42 0 -44 1 -44 29 0 28 3 30 42 33 66 5 61 28
-6 28 -65 0 -96 -22 -96 -70 0 -40 23 -50 114 -50 85 0 102 10 111 68 4 20 9
44 11 53 3 9 -4 26 -13 38 -15 18 -32 23 -105 28 -84 6 -88 5 -88 -14z"/>
<path d="M1961 1201 c-43 -8 -72 -45 -78 -103 -7 -60 17 -78 104 -78 85 0 109
13 122 66 18 70 15 90 -16 102 -40 15 -93 20 -132 13z m89 -74 c0 -59 -17 -79
-60 -75 -31 3 -35 7 -38 34 -2 16 2 42 7 57 9 23 16 27 51 27 l40 0 0 -43z"/>
<path d="M2183 1200 c-12 -5 -25 -19 -27 -32 -14 -64 -26 -130 -26 -138 0 -6
15 -10 34 -10 l33 0 14 73 c14 71 14 72 52 81 55 14 48 36 -10 35 -27 0 -58
-4 -70 -9z"/>
<path d="M1056 1178 c-7 -13 -17 -43 -20 -68 -4 -25 -9 -55 -13 -67 -5 -21 -1
-23 30 -23 39 0 41 3 52 80 9 56 20 70 56 70 19 0 29 5 29 15 0 12 -13 15 -60
15 -51 0 -62 -3 -74 -22z"/>
<path d="M983 963 c-134 -3 -143 -5 -154 -25 -10 -19 -12 -19 -21 -5 -7 13
-24 17 -73 17 -60 0 -67 -2 -92 -31 -27 -30 -31 -31 -95 -27 -36 2 -64 0 -62
-4 8 -12 139 -9 151 3 8 8 13 8 17 0 4 -6 37 -11 77 -11 67 0 71 1 100 35 l31
35 127 0 c80 0 131 -4 138 -11 13 -13 33 -4 33 17 0 8 -8 13 -17 12 -10 -1
-82 -4 -160 -5z m-292 -50 c1 -17 2 -17 6 0 2 9 11 17 19 17 8 0 13 -4 9 -9
-3 -5 -1 -12 5 -16 5 -3 10 1 10 9 0 16 49 23 63 9 16 -15 -18 -33 -62 -33
-67 0 -94 9 -80 26 16 19 29 18 30 -3z"/>
<path d="M2071 963 c-133 -3 -146 -5 -159 -25 -13 -18 -16 -19 -24 -4 -13 22
-130 23 -149 0 -11 -14 -13 -14 -21 0 -7 12 -26 16 -78 16 -38 0 -72 -5 -75
-10 -4 -7 -14 -5 -28 5 -26 18 -78 19 -123 3 -26 -9 -38 -9 -58 1 -16 9 -36
11 -58 6 -18 -4 -50 -7 -70 -7 -23 0 -35 -4 -32 -10 4 -6 24 -7 48 -3 22 3 57
6 76 5 73 -3 106 -2 138 5 19 4 44 2 62 -5 71 -29 10 -51 -137 -50 -157 1
-193 -1 -187 -12 4 -6 24 -7 48 -4 55 9 84 9 124 0 20 -4 50 -1 72 6 29 9 42
10 59 0 19 -9 26 -9 41 5 12 11 20 13 25 6 3 -6 37 -11 74 -11 59 0 70 3 91
25 28 30 37 31 43 8 4 -17 5 -17 6 0 0 9 7 17 15 17 8 0 17 -8 19 -17 4 -17 5
-17 6 0 1 12 10 17 30 17 35 0 46 -13 26 -30 -10 -8 -36 -11 -75 -8 -33 2 -60
1 -60 -4 0 -4 32 -8 71 -8 65 0 73 2 91 26 12 14 24 21 27 16 8 -13 256 -19
256 -7 0 5 -54 9 -119 9 -86 1 -120 4 -123 14 -6 17 248 17 265 0 8 -8 15 -8
26 2 17 13 12 31 -7 28 -7 -1 -77 -4 -156 -5z m-476 -42 c-3 -5 -1 -12 5 -16
5 -3 10 1 10 9 0 24 60 22 61 -1 1 -17 2 -17 6 0 4 17 24 23 36 10 4 -3 2 -12
-4 -20 -13 -15 -116 -18 -138 -4 -16 10 -6 31 15 31 8 0 13 -4 9 -9z"/>
<path d="M187 949 c-10 -6 -32 -7 -49 -4 -22 5 -29 4 -23 -5 5 -8 21 -10 49
-6 56 9 86 9 119 1 17 -5 45 -2 68 5 60 20 148 -10 107 -37 -13 -8 -80 -13
-150 -13 -167 1 -199 -1 -192 -12 4 -6 24 -7 48 -4 55 9 84 9 124 0 20 -4 50
-1 72 6 29 10 42 10 60 0 21 -11 26 -9 49 19 28 34 81 44 81 16 0 -8 5 -15 11
-15 6 0 9 7 5 15 -3 9 0 15 9 15 7 0 16 -8 18 -17 4 -17 5 -17 6 0 1 14 6 17
22 12 15 -5 20 -3 17 6 -6 17 -134 25 -151 10 -8 -6 -19 -5 -31 5 -24 17 -78
18 -123 2 -27 -10 -38 -10 -53 0 -24 15 -69 15 -93 1z"/>
<path d="M187 919 c-10 -6 -32 -8 -50 -4 -28 5 -29 4 -13 -6 15 -9 30 -9 67 0
36 10 53 10 69 1 14 -7 37 -9 59 -5 20 4 58 7 85 7 36 1 44 3 31 10 -9 6 -35
7 -58 3 -53 -8 -92 -8 -137 -1 -19 4 -43 1 -53 -5z"/>
<path d="M850 918 c0 -5 44 -8 99 -8 54 0 113 -3 130 -6 23 -5 31 -3 31 7 0
11 -26 14 -130 14 -71 0 -130 -3 -130 -7z"/>
<path d="M1267 919 c-10 -6 -32 -8 -50 -4 -27 5 -29 4 -14 -6 11 -6 32 -8 50
-4 18 4 47 6 65 6 37 -1 96 -1 166 1 36 1 44 3 31 10 -9 6 -35 7 -58 3 -53 -8
-92 -8 -137 -1 -19 4 -43 1 -53 -5z"/>
<path d="M826 885 c5 -12 30 -15 139 -15 73 0 147 -3 164 -6 24 -5 31 -3 31 9
0 21 -19 32 -33 18 -14 -14 -273 -15 -282 -1 -10 16 -25 12 -19 -5z"/>
<path d="M1910 886 c20 -19 330 -28 330 -9 0 18 -20 27 -33 14 -14 -14 -273
-15 -282 -1 -3 6 -11 10 -18 10 -7 0 -6 -5 3 -14z"/>
</g>
</svg>
