<?xml version="1.0" standalone="no"?>
<!DOCTYPE svg PUBLIC "-//W3C//DTD SVG 20010904//EN"
 "http://www.w3.org/TR/2001/REC-SVG-20010904/DTD/svg10.dtd">
<svg version="1.0" xmlns="http://www.w3.org/2000/svg"
 width="300.000000pt" height="225.000000pt" viewBox="0 0 300.000000 225.000000"
 preserveAspectRatio="xMidYMid meet">
<metadata>
Created by potrace 1.10, written by Peter Selinger 2001-2011
</metadata>
<g transform="translate(0.000000,225.000000) scale(0.100000,-0.100000)"
fill="#000000" stroke="none">
<path d="M1498 2103 c-14 -16 -16 -125 -16 -941 0 -827 2 -923 16 -931 9 -5
25 -5 38 1 22 10 22 14 23 186 0 124 -3 180 -12 191 -9 11 -9 13 0 8 9 -6 12
163 11 730 0 655 -2 740 -15 756 -9 9 -19 17 -23 17 -4 0 -14 -8 -22 -17z m32
-33 c0 -31 -16 -41 -26 -15 -5 13 11 45 22 45 2 0 4 -13 4 -30z m0 -75 c0 -14
-4 -25 -9 -25 -10 0 -21 36 -13 44 12 13 22 5 22 -19z m0 -81 c0 -16 -5 -24
-12 -21 -20 6 -18 47 3 47 5 0 9 -12 9 -26z m0 -70 c0 -14 -5 -24 -11 -22 -6
2 -10 7 -10 11 1 4 1 14 1 22 0 8 5 15 10 15 6 0 10 -12 10 -26z m0 -80 c0
-16 -5 -24 -12 -21 -20 6 -18 47 3 47 5 0 9 -12 9 -26z m0 -69 c0 -25 -14 -34
-24 -16 -8 12 3 41 15 41 5 0 9 -11 9 -25z m0 -80 c0 -26 -14 -33 -25 -15 -9
14 1 40 15 40 5 0 10 -11 10 -25z m1 -58 c-1 -4 -1 -14 -1 -22 0 -8 -4 -15
-10 -15 -5 0 -10 12 -10 26 0 14 5 24 11 22 6 -2 10 -7 10 -11z m-1 -93 c0
-16 -5 -24 -12 -21 -20 6 -18 47 3 47 5 0 9 -12 9 -26z m0 -150 c0 -16 -5 -24
-12 -21 -20 6 -18 47 3 47 5 0 9 -12 9 -26z m0 -150 c0 -16 -5 -24 -12 -21
-20 6 -18 47 3 47 5 0 9 -12 9 -26z m0 -69 c0 -14 -4 -25 -9 -25 -10 0 -21 36
-13 44 12 13 22 5 22 -19z m0 -80 c0 -26 -14 -33 -25 -15 -9 14 1 40 15 40 5
0 10 -11 10 -25z m0 -150 c0 -14 -4 -25 -9 -25 -10 0 -21 36 -13 44 12 13 22
5 22 -19z m0 -151 c0 -16 -5 -24 -12 -21 -20 6 -18 47 3 47 5 0 9 -12 9 -26z
m0 -150 c0 -16 -5 -24 -12 -21 -20 6 -18 47 3 47 5 0 9 -12 9 -26z m0 -149 c0
-26 -14 -33 -25 -15 -9 14 1 40 15 40 5 0 10 -11 10 -25z m0 -151 c0 -16 -5
-24 -12 -21 -20 6 -18 47 3 47 5 0 9 -12 9 -26z"/>
<path d="M792 2057 c-16 -17 -22 -36 -22 -68 0 -24 -6 -55 -14 -69 -11 -21
-10 -29 3 -52 15 -28 25 -32 69 -28 12 1 22 -3 22 -9 0 -6 -9 -11 -19 -11 -20
0 -61 -43 -61 -65 0 -25 46 -54 95 -59 39 -5 57 -2 83 14 l32 20 0 97 c-1 69
-5 104 -15 117 -12 16 -12 21 0 40 20 28 19 52 -5 76 -31 31 -138 29 -168 -3z
m158 -37 c0 -18 -7 -20 -54 -20 l-54 0 1 -35 1 -35 53 0 54 0 -3 -96 -3 -96
-68 -1 c-63 -2 -67 -1 -67 21 0 20 5 22 50 22 l50 0 0 55 0 55 -49 0 c-34 0
-51 -4 -55 -15 -7 -20 -25 -19 -33 1 -3 9 3 21 16 30 17 13 21 25 21 75 l0 59
70 0 c63 0 70 -2 70 -20z"/>
<path d="M2442 2073 c-29 -11 -40 -59 -41 -179 -2 -142 6 -169 56 -190 33 -14
48 -14 105 -2 10 2 26 15 38 28 17 19 20 37 20 104 0 93 -13 121 -63 134 -25
7 -33 15 -38 42 -4 19 -17 43 -29 52 -23 19 -27 20 -48 11z m38 -88 l0 -55 50
0 50 0 0 -97 0 -98 -67 2 -68 1 -3 151 c-2 146 -2 151 18 151 18 0 20 -6 20
-55z"/>
<path d="M2480 1835 l0 -55 33 0 32 0 -3 55 c-4 53 -5 55 -33 55 -29 0 -29 -1
-29 -55z"/>
<path d="M431 1561 c-21 -21 -39 -109 -25 -120 5 -3 14 -15 20 -26 6 -11 23
-21 37 -23 35 -4 57 30 57 91 0 38 -5 53 -25 72 -29 30 -39 31 -64 6z m49 -81
c0 -53 -2 -60 -20 -60 -18 0 -20 7 -20 60 0 53 2 60 20 60 18 0 20 -7 20 -60z"/>
<path d="M2562 1037 c-17 -18 -22 -36 -22 -79 0 -60 18 -88 57 -88 30 0 44 23
50 83 4 47 2 57 -20 80 -30 33 -38 33 -65 4z m48 -67 c0 -27 1 -53 3 -57 1 -5
-7 -9 -18 -11 -18 -3 -20 3 -20 58 0 51 2 60 17 60 15 0 18 -9 18 -50z"/>
</g>
</svg>
