<?xml version="1.0" standalone="no"?>
<!DOCTYPE svg PUBLIC "-//W3C//DTD SVG 20010904//EN"
 "http://www.w3.org/TR/2001/REC-SVG-20010904/DTD/svg10.dtd">
<svg version="1.0" xmlns="http://www.w3.org/2000/svg"
 width="300.000000pt" height="300.000000pt" viewBox="0 0 300.000000 300.000000"
 preserveAspectRatio="xMidYMid meet">
<metadata>
Created by potrace 1.10, written by Peter Selinger 2001-2011
</metadata>
<g transform="translate(0.000000,300.000000) scale(0.100000,-0.100000)"
fill="#000000" stroke="none">
<path d="M1238 2710 c-160 -25 -313 -90 -425 -180 l-62 -50 13 -38 c71 -200
272 -408 593 -611 178 -113 355 -205 371 -194 15 9 85 -25 401 -194 57 -31
101 -51 98 -46 -3 5 -25 18 -47 28 -29 13 -40 23 -36 34 2 9 18 54 35 101 171
484 -123 1015 -630 1135 -81 19 -237 27 -311 15z m287 -33 c17 -2 47 -11 69
-20 21 -9 47 -17 58 -17 22 0 118 -49 118 -60 0 -4 18 -12 39 -19 64 -19 222
-169 242 -231 7 -19 18 -39 25 -43 17 -10 54 -80 54 -101 0 -9 10 -35 22 -58
12 -23 23 -56 25 -73 1 -16 7 -52 13 -78 9 -37 9 -51 0 -62 -10 -12 -10 -15 0
-15 9 0 11 -24 5 -102 -3 -56 -10 -107 -14 -113 -5 -5 -11 -30 -14 -55 -9 -63
-43 -130 -67 -130 -10 0 -22 5 -25 10 -3 6 -13 10 -21 10 -8 0 -32 11 -54 25
-22 14 -45 25 -52 25 -7 0 -29 10 -48 22 -45 29 -140 68 -163 68 -19 0 -58 18
-67 30 -3 4 -26 14 -53 23 -59 20 -254 136 -287 172 -14 15 -43 35 -65 45 -60
28 -315 250 -315 275 0 5 -9 16 -19 22 -25 16 -97 120 -122 179 -15 33 -17 49
-10 63 15 28 99 86 175 122 36 17 68 35 71 39 3 5 27 12 53 16 26 3 52 11 59
16 6 5 35 11 63 13 28 2 54 6 58 10 6 5 166 0 247 -8z"/>
<path d="M704 2428 c-58 -63 -58 -62 -39 -120 10 -29 33 -82 50 -118 108 -215
389 -457 770 -662 l120 -64 25 35 26 35 -118 68 c-293 168 -493 332 -640 524
-65 86 -133 212 -151 283 l-13 51 -30 -32z m57 -135 c82 -173 154 -258 433
-512 21 -20 36 -30 32 -23 -12 21 1 14 72 -38 38 -28 103 -70 146 -94 42 -24
72 -46 65 -48 -7 -2 12 -15 42 -28 30 -12 48 -25 40 -28 -17 -6 -142 58 -135
70 3 4 -4 8 -15 8 -12 0 -21 5 -21 10 0 6 -5 10 -11 10 -6 0 -33 16 -60 36
-27 20 -49 33 -49 30 0 -8 -81 38 -143 82 -125 88 -281 237 -352 337 -78 109
-126 222 -112 260 12 30 27 14 68 -72z"/>
<path d="M591 2275 l-45 -77 24 -70 c77 -228 297 -457 635 -663 118 -73 268
-155 281 -155 5 0 19 15 31 32 l22 31 -96 55 c-379 213 -663 494 -764 757 -17
44 -34 100 -38 124 l-6 44 -44 -78z m49 -72 c0 -13 56 -130 92 -195 20 -34
109 -146 168 -211 105 -115 342 -296 505 -387 72 -40 70 -38 62 -46 -12 -13
-382 204 -437 257 -8 8 -41 33 -72 57 -45 35 -135 120 -203 196 -35 38 -110
154 -135 210 -32 70 -37 105 -19 137 8 16 13 18 25 8 8 -6 14 -18 14 -26z"/>
<path d="M510 2086 c-21 -77 -22 -92 -11 -140 16 -72 77 -196 136 -276 131
-176 373 -357 648 -483 l88 -41 24 30 c14 16 24 32 25 36 0 3 -42 29 -92 56
-264 143 -497 336 -630 523 -63 88 -135 240 -151 318 l-13 64 -24 -87z m57
-133 c27 -60 96 -177 116 -198 7 -7 41 -47 77 -89 35 -43 87 -96 115 -120 76
-65 156 -129 195 -156 19 -13 37 -27 40 -30 3 -3 58 -37 123 -75 65 -38 120
-72 123 -77 7 -11 -22 -10 -44 1 -9 6 -60 31 -112 56 -229 112 -451 293 -561
458 -85 127 -134 245 -114 277 11 17 15 12 42 -47z"/>
<path d="M478 1900 c-4 -25 -2 -90 3 -145 38 -377 310 -682 686 -771 39 -9
118 -17 183 -18 l115 -1 258 -138 c142 -76 260 -137 261 -135 2 2 84 125 183
273 156 234 181 276 185 318 l6 48 -49 25 c-27 13 -49 22 -49 19 0 -2 18 -14
40 -25 22 -11 40 -24 40 -29 0 -4 -75 -118 -166 -252 -92 -134 -169 -251 -172
-259 -3 -9 7 -4 23 10 l27 25 -33 -65 -34 -65 -3 40 -3 40 -300 160 c-165 88
-305 162 -310 163 -5 2 -9 -18 -9 -45 l0 -48 19 24 18 24 49 -25 c95 -48 489
-260 502 -270 17 -14 15 -28 -3 -28 -9 0 -116 54 -239 120 -153 82 -234 120
-256 120 -31 0 -92 31 -315 159 -183 105 -364 262 -477 415 -86 115 -158 267
-170 356 -3 18 -6 12 -10 -20z m98 -272 c67 -112 151 -207 298 -337 61 -53
248 -177 334 -220 43 -22 84 -46 91 -55 12 -14 10 -16 -12 -16 -50 0 -177 29
-244 56 -219 88 -389 256 -476 474 -24 61 -45 160 -34 160 3 0 22 -28 43 -62z"/>
<path d="M1743 1501 c-28 -5 -44 -24 -118 -131 -66 -96 -84 -131 -81 -150 3
-14 8 -44 11 -67 l7 -42 154 -81 154 -81 68 13 67 13 82 120 c45 66 82 129 82
139 1 11 -4 45 -11 76 l-11 57 -144 72 c-148 73 -172 79 -260 62z m235 -80
c64 -32 125 -67 134 -78 10 -11 21 -41 24 -67 7 -46 5 -49 -70 -161 l-77 -114
-57 -12 -57 -12 -133 69 c-74 38 -140 78 -147 89 -8 11 -17 38 -20 61 -7 38
-3 47 65 148 40 59 82 113 94 121 12 9 43 15 73 15 45 0 72 -9 171 -59z"/>
<path d="M2795 640 c-3 -5 1 -10 9 -10 12 0 16 -10 16 -36 0 -21 4 -33 10 -29
6 3 10 19 10 36 0 16 5 29 10 29 6 0 10 5 10 10 0 6 -13 10 -29 10 -17 0 -33
-4 -36 -10z"/>
<path d="M2870 604 c0 -30 4 -43 11 -38 6 3 8 18 5 33 -4 20 -2 18 11 -9 l16
-35 13 30 13 30 1 -28 c0 -16 4 -26 10 -22 6 3 10 24 10 46 0 47 -23 54 -38
12 l-10 -28 -11 28 c-16 41 -31 33 -31 -19z"/>
<path d="M176 619 c-117 -29 -168 -128 -111 -216 21 -32 74 -63 108 -63 15 0
27 -4 27 -9 0 -13 85 -40 147 -48 74 -8 66 8 -14 31 l-67 20 42 14 c22 7 55
29 72 48 25 29 30 43 30 85 0 61 -21 104 -59 124 -38 19 -126 27 -175 14z
m124 -34 c39 -20 50 -43 50 -109 0 -44 -5 -61 -24 -83 -22 -25 -30 -28 -90
-28 -57 0 -69 4 -92 26 -28 29 -46 91 -37 129 7 30 31 59 58 71 33 13 104 10
135 -6z"/>
<path d="M2575 615 c-45 -16 -65 -38 -65 -71 0 -33 22 -50 82 -64 89 -21 118
-36 118 -62 0 -43 -15 -53 -76 -53 -51 0 -59 3 -83 33 l-28 32 -11 -25 c-16
-35 -15 -42 6 -50 106 -45 242 -3 242 74 0 36 -23 54 -90 71 -117 29 -136 44
-100 80 30 30 94 27 127 -6 25 -25 27 -26 40 -8 18 25 12 37 -28 51 -45 16
-85 15 -134 -2z"/>
<path d="M480 607 c38 -17 40 -25 38 -125 -2 -82 0 -95 19 -113 28 -28 98 -40
169 -29 89 15 98 29 102 155 3 94 6 105 22 105 10 0 22 5 25 10 4 6 -22 10
-72 9 -67 -1 -74 -3 -50 -12 l27 -11 0 -103 c0 -99 -1 -103 -25 -119 -19 -12
-39 -15 -77 -12 -76 8 -88 27 -88 142 0 91 0 92 28 103 23 9 14 11 -58 11 -72
1 -81 -1 -60 -11z"/>
<path d="M968 495 c-51 -88 -80 -127 -95 -131 -45 -12 -21 -24 47 -24 40 0 70
4 70 10 0 6 -11 10 -25 10 -30 0 -30 1 -5 50 l20 40 68 0 68 0 14 -37 c8 -21
16 -41 18 -45 2 -5 -8 -8 -22 -8 -14 0 -26 -4 -26 -10 0 -6 32 -10 75 -10 76
0 92 7 54 25 -14 6 -45 56 -83 132 -81 163 -82 163 -178 -2z m110 30 c12 -25
22 -48 22 -50 0 -3 -22 -5 -50 -5 -27 0 -50 3 -50 8 0 11 44 92 50 92 4 0 16
-20 28 -45z"/>
<path d="M1313 607 l27 -11 0 -118 c0 -110 -1 -118 -19 -118 -11 0 -23 -4 -26
-10 -4 -6 22 -10 69 -10 44 0 76 4 76 10 0 6 -9 10 -20 10 -18 0 -20 7 -20 55
0 51 2 55 23 55 15 0 45 -23 87 -65 57 -57 69 -65 102 -65 21 0 38 5 38 10 0
6 -6 10 -13 10 -13 0 -127 110 -127 123 0 4 6 7 14 7 7 0 25 10 40 21 21 16
26 28 24 52 -5 48 -33 57 -178 56 -101 -1 -120 -3 -97 -12z m195 -23 c25 -18
29 -56 7 -74 -9 -7 -38 -15 -65 -18 l-50 -5 0 57 0 56 43 0 c23 0 53 -7 65
-16z"/>
<path d="M1660 585 c0 -42 5 -43 36 -10 17 19 33 25 64 25 l40 0 0 -120 0
-120 -24 0 c-14 0 -28 -4 -31 -10 -4 -6 25 -10 79 -10 47 0 86 4 86 9 0 5 -12
11 -27 13 l-28 3 -3 118 -3 117 44 0 c33 0 49 -6 67 -25 32 -34 40 -32 40 10
l0 35 -170 0 -170 0 0 -35z"/>
<path d="M2092 607 c26 -10 26 -12 30 -118 4 -126 8 -134 85 -148 72 -14 148
0 181 33 25 24 26 31 25 114 -2 96 0 102 37 119 22 10 14 12 -52 12 -43 1 -78
-1 -78 -4 0 -3 11 -10 25 -15 24 -9 25 -13 25 -88 0 -107 -12 -140 -56 -148
-43 -8 -99 2 -119 22 -21 22 -22 214 -1 214 8 0 18 5 21 10 4 6 -22 10 -72 9
-66 -1 -74 -3 -51 -12z"/>
</g>
</svg>
