<?xml version="1.0" standalone="no"?>
<!DOCTYPE svg PUBLIC "-//W3C//DTD SVG 20010904//EN"
 "http://www.w3.org/TR/2001/REC-SVG-20010904/DTD/svg10.dtd">
<svg version="1.0" xmlns="http://www.w3.org/2000/svg"
 width="300.000000pt" height="365.000000pt" viewBox="0 0 300.000000 365.000000"
 preserveAspectRatio="xMidYMid meet">
<metadata>
Created by potrace 1.10, written by Peter Selinger 2001-2011
</metadata>
<g transform="translate(0.000000,365.000000) scale(0.100000,-0.100000)"
fill="#000000" stroke="none">
<path d="M1735 3560 c-12 -39 35 -66 63 -38 9 9 12 9 12 0 0 -7 9 -12 20 -12
14 0 20 7 21 23 1 19 2 19 6 3 6 -23 33 -53 33 -37 0 6 7 11 15 11 7 0 19 8
24 18 10 16 10 16 11 0 0 -27 38 -23 43 5 l4 22 2 -22 c0 -13 5 -23 9 -23 6 0
7 18 3 63 -1 12 -25 -14 -36 -38 -8 -20 -9 -20 -12 1 -3 13 -13 24 -28 26 -29
6 -41 -1 -48 -27 -3 -13 -5 -8 -6 13 -1 28 -3 31 -14 20 -7 -7 -17 -22 -22
-33 -8 -20 -8 -20 -13 0 -10 43 -75 62 -87 25z m50 -15 c0 -28 -29 -25 -33 3
-3 19 0 23 15 20 10 -2 18 -12 18 -23z"/>
<path d="M1630 3435 c0 -19 5 -35 10 -35 6 0 10 6 10 14 0 7 9 16 19 19 15 3
21 -1 24 -17 4 -20 4 -20 6 2 1 27 17 29 24 3 4 -16 15 -18 98 -17 89 1 94 2
97 24 3 19 -2 24 -24 21 -4 0 -11 5 -15 13 -6 9 -9 1 -10 -22 -1 -21 -3 -27
-6 -15 -7 28 -19 39 -28 24 -5 -8 -4 -10 3 -5 7 4 12 3 12 -2 0 -19 -27 -20
-39 -1 -6 11 -16 17 -21 14 -6 -3 -10 0 -10 7 -1 7 -7 -2 -15 -19 -15 -34 -35
-44 -35 -18 0 8 7 15 16 15 8 0 13 4 10 8 -3 5 -18 7 -34 4 -16 -2 -33 1 -36
7 -4 6 -18 11 -32 11 -21 0 -24 -5 -24 -35z"/>
<path d="M1932 3435 c-2 -19 2 -35 8 -35 5 0 10 16 10 35 0 19 -4 35 -8 35 -4
0 -9 -16 -10 -35z"/>
<path d="M1980 3436 c0 -25 4 -36 15 -36 9 0 15 9 15 21 0 11 -7 27 -15 35
-13 14 -15 11 -15 -20z"/>
<path d="M2031 3451 c-7 -5 -11 -17 -9 -27 4 -25 88 -33 88 -9 0 8 -8 15 -17
15 -15 0 -16 -2 -3 -10 8 -5 11 -10 5 -10 -5 0 -17 4 -24 9 -12 8 -9 11 13 17
19 4 24 10 17 17 -7 7 -14 7 -24 -1 -8 -7 -17 -8 -23 -2 -5 5 -15 5 -23 1z"/>
<path d="M1859 3363 c-1 -10 0 -30 1 -45 l2 -28 -124 0 c-138 0 -148 -4 -148
-59 0 -64 -9 -62 286 -59 l269 3 3 43 c5 68 -3 72 -146 72 l-125 0 5 33 c3 17
3 38 1 45 -7 18 -23 15 -24 -5z m271 -133 l0 -40 -260 0 -260 0 0 40 0 40 260
0 260 0 0 -40z"/>
<path d="M1735 3249 c-8 -12 -8 -11 20 -28 19 -12 19 -12 -2 -8 -13 3 -23 1
-23 -3 0 -5 20 -8 45 -8 37 1 45 5 45 20 0 11 -7 18 -19 18 -11 0 -23 5 -26
10 -8 13 -32 13 -40 -1z"/>
<path d="M1831 3230 c0 -27 2 -31 8 -15 8 20 8 20 13 0 4 -15 6 -13 7 8 0 16
-3 26 -8 23 -5 -4 -12 0 -14 6 -3 7 -5 -3 -6 -22z"/>
<path d="M1871 3218 c1 -17 2 -19 6 -5 2 9 8 17 13 17 5 0 11 -8 13 -17 4 -15
5 -15 7 2 1 20 1 20 10 0 8 -19 9 -19 9 3 1 18 -4 22 -29 22 -25 0 -30 -4 -29
-22z"/>
<path d="M1948 3233 c6 -2 12 -9 12 -14 0 -6 -4 -7 -10 -4 -5 3 -10 1 -10 -5
0 -6 14 -10 33 -8 24 1 33 7 33 19 0 21 -18 20 -28 -1 -5 -12 -7 -12 -7 3 -1
10 -8 17 -18 16 -11 0 -13 -3 -5 -6z"/>
<path d="M1859 3148 c-1 -7 0 -25 1 -40 l2 -28 -124 0 c-138 0 -148 -4 -148
-59 0 -64 -9 -62 286 -59 l269 3 3 43 c5 68 -3 72 -145 72 l-125 0 2 28 c3 41
1 52 -10 52 -5 0 -10 -6 -11 -12z m271 -128 l0 -40 -260 0 -260 0 0 40 0 40
260 0 260 0 0 -40z"/>
<path d="M1771 3023 c-1 -29 2 -33 24 -33 20 0 25 5 24 23 -1 16 -2 18 -6 5
-7 -28 -31 -21 -36 10 -4 25 -4 25 -6 -5z"/>
<path d="M1870 3010 c0 -12 7 -20 18 -20 14 0 15 2 2 10 -13 8 -12 10 3 10 9
0 17 -4 17 -10 0 -19 47 -11 53 9 3 15 0 19 -14 18 -12 -1 -17 -7 -14 -15 3
-8 0 -12 -7 -9 -7 2 -12 9 -11 14 1 5 -9 10 -23 11 -18 1 -24 -3 -24 -18z"/>
<path d="M1859 2938 c-1 -7 -1 -21 0 -30 2 -16 -10 -18 -137 -18 -123 0 -143
-2 -163 -19 l-24 -19 -3 -461 c-2 -365 -5 -461 -15 -461 -33 0 -37 23 -37 236
l0 213 -26 20 c-25 19 -40 21 -188 21 -172 0 -206 -8 -206 -50 0 -18 -12 -19
-215 -22 -208 -3 -215 -4 -237 -26 l-23 -23 0 -545 0 -546 28 -24 c28 -24 31
-24 238 -24 l209 0 0 -46 c0 -37 -5 -52 -26 -70 -32 -30 -94 -34 -94 -6 0 20
-34 55 -64 66 -52 18 -116 -37 -116 -99 0 -39 50 -85 93 -85 37 0 87 37 87 65
0 11 10 15 38 15 51 -1 77 -25 77 -75 l0 -39 -125 -2 c-69 -1 -129 -2 -133 -3
-4 0 -6 -52 -5 -113 l3 -113 131 -3 131 -3 0 -75 c1 -41 3 -78 7 -81 5 -6 11
97 8 139 -2 16 13 18 131 20 l132 3 3 112 3 112 -27 7 c-14 4 -75 4 -135 2
l-108 -6 2 42 c1 25 9 46 20 54 23 17 22 48 -3 69 -15 13 -20 30 -20 65 l0 48
139 0 c125 0 141 2 165 21 l26 20 0 553 c0 549 0 553 -21 572 -18 16 -40 19
-165 22 -79 2 -144 7 -144 12 0 5 7 16 16 24 13 13 44 16 183 16 116 0 171 -4
179 -12 9 -9 12 -73 12 -224 0 -227 4 -244 51 -244 18 0 19 -11 19 -351 l0
-351 29 -29 29 -29 136 0 136 0 0 -55 c0 -42 -5 -60 -20 -75 -25 -25 -25 -35
-1 -59 12 -12 19 -33 19 -55 l0 -36 -112 6 c-156 9 -156 9 -156 -114 0 -63 4
-102 12 -110 8 -8 54 -12 140 -12 109 0 128 -2 121 -14 -11 -19 -4 -146 8
-146 8 0 15 92 11 142 -2 16 13 18 131 20 l132 3 3 104 c1 57 -1 108 -6 113
-5 5 -66 10 -135 11 l-125 2 1 35 c1 19 9 42 19 52 22 22 88 25 88 4 0 -7 12
-25 26 -40 59 -59 154 -20 154 64 0 102 -144 127 -175 30 -5 -15 -15 -20 -41
-20 -52 0 -74 28 -74 94 l0 55 205 3 c197 3 205 4 227 26 l23 23 0 813 0 814
-24 26 -24 26 -204 0 c-189 0 -204 1 -202 18 3 29 -1 42 -11 42 -5 0 -11 -6
-11 -12z m1 -78 c0 -18 -8 -20 -132 -22 l-133 -3 -3 -29 c-2 -15 -1 -39 2 -52
6 -24 8 -24 136 -24 80 0 130 -4 130 -10 0 -6 -48 -10 -123 -10 -82 0 -127 -4
-135 -12 -8 -8 -12 -47 -12 -108 0 -61 4 -100 12 -108 8 -8 54 -12 141 -12 97
0 126 -3 121 -12 -4 -7 -7 -29 -5 -51 l2 -39 -123 3 c-68 2 -129 0 -136 -5 -6
-4 -12 -22 -12 -41 0 -65 -1 -65 141 -65 79 0 129 -4 129 -10 0 -6 -50 -10
-129 -10 -108 0 -130 -3 -135 -16 -9 -23 -7 -187 2 -202 7 -9 69 -12 278 -10
l269 3 0 110 0 110 -132 3 c-75 1 -133 7 -133 12 0 5 58 11 133 12 124 3 132
4 135 24 2 16 11 20 40 21 73 2 72 6 72 -217 0 -187 -1 -200 -19 -210 -31 -16
-361 -13 -361 3 0 27 25 37 96 37 68 0 74 2 93 28 13 19 17 33 11 42 -11 18
-22 8 -24 -22 -1 -21 -6 -23 -79 -28 -67 -4 -82 -8 -98 -29 -10 -13 -19 -36
-19 -52 l0 -29 -123 0 c-137 0 -147 -4 -147 -60 0 -56 10 -60 147 -60 169 0
161 -19 -9 -22 l-133 -3 -3 -144 c-3 -157 1 -171 50 -171 24 0 28 -3 19 -17
-7 -13 -3 -23 15 -40 22 -20 36 -23 105 -23 l79 0 0 -55 0 -55 -135 0 c-122 0
-137 2 -155 20 -19 19 -20 33 -20 368 l0 347 140 -3 140 -3 30 30 c19 18 28
35 24 45 -9 24 -24 19 -24 -7 0 -39 -18 -47 -113 -47 -88 0 -88 0 -73 21 14
21 12 49 -5 49 -5 0 -9 -10 -9 -23 0 -34 -19 -47 -67 -47 l-43 0 0 454 0 455
26 20 c24 19 40 21 155 21 122 0 129 -1 129 -20z m441 -9 c18 -22 19 -51 19
-824 l0 -801 -22 -23 c-21 -23 -25 -23 -220 -23 -182 0 -198 1 -198 18 0 16
15 17 181 17 239 0 219 -25 219 279 0 173 -3 237 -13 250 -16 21 -79 37 -101
24 -13 -7 -16 -4 -16 15 0 42 -16 47 -147 47 -103 0 -123 2 -123 15 0 13 27
15 184 15 180 0 185 1 200 22 13 18 16 56 16 209 0 219 -3 228 -82 231 -39 2
-48 6 -50 23 -3 19 -11 20 -135 23 -204 4 -165 22 47 22 236 0 220 -14 220
203 -1 181 -5 193 -63 207 -39 8 -72 -4 -49 -18 7 -5 24 -7 38 -4 49 9 54 -7
54 -182 0 -113 -4 -166 -12 -174 -8 -8 -64 -12 -188 -12 l-176 0 -1 33 -1 32
120 -3 c81 -2 124 1 134 9 18 15 20 199 2 217 -8 8 -53 12 -135 12 -169 0
-161 19 10 22 l132 3 0 50 0 50 -132 3 c-126 2 -133 4 -133 23 0 20 5 20 201
17 197 -3 201 -3 220 -27z m-171 -66 l0 -45 -257 2 -258 3 -3 43 -3 42 260 0
261 0 0 -45z m0 -195 l0 -100 -260 0 -260 0 0 100 0 100 260 0 260 0 0 -100z
m-2 -272 l-3 -43 -255 0 -255 0 -3 43 -3 42 261 0 261 0 -3 -42z m-1068 -8 c0
-18 -8 -20 -132 -22 -130 -3 -133 -4 -136 -26 -3 -16 -10 -22 -25 -21 -53 5
-88 -2 -107 -21 -18 -18 -20 -33 -20 -190 0 -226 -18 -210 230 -210 l190 0 0
-40 0 -39 -132 -3 -133 -3 -3 -26 c-3 -25 -6 -26 -50 -21 -38 3 -53 0 -74 -18
l-28 -21 0 -193 c0 -157 3 -196 16 -214 15 -21 20 -22 210 -22 187 0 194 -1
194 -20 0 -19 -7 -20 -210 -20 -197 0 -211 1 -230 20 -20 20 -20 33 -20 555 0
522 0 535 20 555 19 19 33 20 230 20 202 0 210 -1 210 -20z m310 0 c20 -20 20
-33 20 -555 0 -522 0 -535 -20 -555 -18 -18 -33 -20 -160 -20 l-140 0 0 55 0
55 83 0 c75 0 86 2 106 23 13 15 19 30 15 40 -4 12 -1 17 14 17 50 0 52 6 52
120 0 89 -3 109 -16 114 -9 3 -70 7 -137 8 l-122 2 135 6 135 5 0 55 0 55
-133 3 -133 3 2 92 2 92 119 -4 c83 -2 123 0 133 9 12 10 15 37 15 116 0 122
13 113 -160 117 l-115 3 125 2 c69 1 131 6 138 11 9 5 12 25 10 57 l-3 49
-132 3 c-125 2 -133 4 -133 22 0 19 7 20 140 20 127 0 142 -2 160 -20z m-50
-80 l0 -40 -260 0 -260 0 0 40 0 40 260 0 260 0 0 -40z m-528 -27 l3 -28 135
-5 135 -4 -135 -6 -135 -5 -3 -112 -3 -112 26 -7 c14 -3 74 -5 133 -3 l107 4
2 -42 1 -43 -187 0 c-132 0 -191 4 -199 12 -17 17 -17 342 1 356 7 6 33 12 57
15 25 2 48 4 52 5 4 1 8 -10 10 -25z m1336 -75 l3 -98 -261 0 -260 0 0 93 c0
52 3 97 7 101 4 3 119 5 257 4 l251 -3 3 -97z m-808 -88 l0 -100 -257 2 -258
3 -3 98 -3 97 261 0 260 0 0 -100z m810 -270 l0 -40 -260 0 -260 0 0 40 0 40
260 0 260 0 0 -40z m117 -32 c18 -15 19 -478 1 -496 -8 -8 -65 -12 -190 -12
l-178 0 0 30 0 30 83 0 c75 0 85 2 104 24 15 16 18 28 11 40 -7 13 -4 16 20
16 49 0 53 14 50 171 l-3 144 -132 3 c-172 3 -178 22 -8 22 111 0 126 2 137
19 13 21 83 27 105 9z m-927 -58 l0 -40 -260 0 -260 0 0 40 0 40 260 0 260 0
0 -40z m810 -145 l0 -145 -260 0 -260 0 0 145 0 145 260 0 260 0 0 -145z
m-1338 111 c3 -20 11 -21 138 -26 l135 -4 -135 -6 -135 -5 -3 -109 c-3 -117 0
-126 47 -126 17 0 22 -4 17 -17 -4 -10 2 -25 15 -40 20 -21 31 -23 106 -23
l83 0 0 -30 0 -30 -174 0 c-96 0 -186 4 -200 10 l-26 10 0 198 c0 137 4 202
12 210 6 6 35 11 64 10 46 -1 53 -4 56 -22z m528 -156 l0 -100 -257 2 -258 3
-3 98 -3 97 261 0 260 0 0 -100z m-265 -149 l-1 -34 -79 2 c-44 1 -83 5 -86 9
-4 4 -9 18 -12 32 l-6 25 93 0 93 0 -2 -34z m196 11 c-6 -11 -8 -22 -4 -25 10
-10 -18 -16 -98 -19 l-77 -3 1 32 1 32 90 3 c50 2 92 2 94 1 2 -1 -1 -10 -7
-21z m609 -14 l0 -33 -81 3 c-75 3 -81 5 -90 28 -5 14 -9 27 -9 30 0 2 41 4
90 4 l90 0 0 -32z m196 5 c-3 -28 -4 -28 -89 -33 l-86 -5 1 33 1 32 88 0 88 0
-3 -27z m-1152 -274 c21 -16 26 -28 24 -53 -3 -27 -7 -31 -32 -31 -25 0 -31 5
-38 33 -7 26 -15 34 -40 39 -29 6 -30 7 -13 20 27 19 68 16 99 -8z m1231 -14
c29 -28 33 -70 7 -84 -22 -12 -52 3 -52 26 0 24 -30 53 -54 53 -21 1 -21 1 -2
15 30 23 74 18 101 -10z m-1301 -21 c9 -8 16 -24 16 -34 0 -23 35 -44 57 -36
13 5 14 4 4 -8 -34 -41 -111 -23 -131 30 -19 48 20 83 54 48z m250 0 c20 -19
20 -28 1 -44 -12 -10 -15 -10 -15 3 0 8 4 17 9 19 5 2 4 8 -3 14 -8 8 -15 7
-24 -3 -8 -8 -9 -13 -2 -13 5 0 10 -7 10 -16 0 -21 -24 -12 -28 10 -4 17 14
46 29 46 4 0 15 -7 23 -16z m991 -40 c17 -32 26 -39 49 -39 l28 1 -22 -18
c-12 -10 -31 -18 -41 -18 -64 0 -118 82 -71 109 25 15 34 9 57 -35z m-175 20
c11 -12 10 -18 -3 -32 -16 -15 -17 -14 -17 12 0 25 -2 27 -15 16 -13 -10 -13
-15 -3 -21 7 -4 9 -11 6 -14 -11 -11 -28 4 -28 24 0 34 37 43 60 15z m-580
-244 l0 -100 -260 0 -260 0 0 93 c0 52 3 97 7 100 3 4 120 7 260 7 l253 0 0
-100z m810 0 l0 -100 -260 0 -260 0 0 100 0 100 260 0 260 0 0 -100z"/>
<path d="M1671 2797 c-6 -16 -11 -29 -11 -30 0 -1 14 -2 30 -3 19 -1 30 4 30
12 0 20 18 17 23 -3 3 -12 5 -8 6 9 1 21 -3 25 -19 21 -11 -3 -20 -13 -20 -22
-1 -9 -7 -2 -14 14 l-14 30 -11 -28z"/>
<path d="M1830 2796 c-14 -38 -13 -40 12 -16 17 15 19 23 10 32 -8 8 -14 5
-22 -16z"/>
<path d="M1778 2803 c-10 -2 -18 -8 -18 -13 0 -5 7 -7 16 -3 12 4 15 2 12 -8
-3 -8 -11 -13 -17 -11 -7 1 -10 -2 -6 -7 10 -18 35 0 35 25 0 13 -1 23 -2 23
-2 -1 -11 -3 -20 -6z"/>
<path d="M1890 2785 c0 -14 4 -25 10 -25 5 0 7 8 3 18 -6 15 -4 15 15 -2 22
-19 22 -19 22 10 0 20 -3 25 -9 15 -6 -9 -11 -10 -15 -2 -12 19 -26 12 -26
-14z"/>
<path d="M1953 2783 c-3 -8 -3 -17 1 -20 3 -4 6 1 6 10 0 10 5 17 10 17 6 0
10 -7 10 -15 0 -21 16 -19 25 3 7 16 8 15 15 -3 7 -17 9 -17 9 -2 1 9 6 17 11
17 6 0 10 -8 11 -17 0 -15 2 -15 8 2 8 20 8 20 13 0 5 -18 6 -18 7 3 1 21 -2
23 -60 21 -41 -1 -63 -6 -66 -16z"/>
<path d="M1790 2650 c0 -26 2 -29 14 -18 8 7 10 15 5 16 -15 6 -10 20 9 25 13
4 11 5 -5 6 -19 1 -23 -4 -23 -29z"/>
<path d="M1931 2661 c-8 -5 -34 -8 -58 -5 -41 4 -44 2 -41 -18 3 -20 9 -23 55
-24 62 -1 71 4 64 33 -4 16 -10 20 -20 14z"/>
<path d="M1731 2548 c1 -18 3 -25 6 -15 6 21 29 22 37 1 8 -21 49 -14 58 11 6
19 7 19 13 -3 6 -18 10 -20 21 -11 19 15 18 33 -1 25 -8 -3 -15 -1 -15 4 0 6
-7 10 -15 10 -8 0 -15 -5 -15 -11 0 -8 -4 -8 -14 0 -9 7 -17 8 -20 2 -3 -5
-16 -7 -28 -3 -21 5 -21 6 -2 13 18 7 17 8 -3 8 -20 1 -23 -4 -22 -31z"/>
<path d="M1991 2571 c-8 -5 -29 -8 -48 -6 -33 3 -63 -15 -63 -38 0 -6 6 -3 13
6 9 13 16 14 27 6 13 -9 12 -10 -2 -5 -10 3 -18 1 -18 -4 0 -6 9 -10 20 -10
11 0 20 6 20 14 0 8 7 16 15 20 10 4 15 -1 15 -14 0 -13 7 -20 20 -20 16 0 20
7 20 30 0 34 0 33 -19 21z"/>
<path d="M1671 2327 c-6 -16 -11 -29 -11 -30 0 -1 14 -2 30 -3 19 -1 30 4 30
12 0 20 18 17 23 -3 3 -12 5 -8 6 9 1 21 -3 25 -19 21 -11 -3 -20 -13 -20 -22
-1 -9 -7 -2 -14 14 l-14 30 -11 -28z"/>
<path d="M1830 2326 c-14 -38 -13 -40 12 -16 17 15 19 23 10 32 -8 8 -14 5
-22 -16z"/>
<path d="M1778 2333 c-10 -2 -18 -8 -18 -13 0 -5 7 -7 16 -3 12 4 15 2 12 -8
-3 -8 -11 -13 -17 -11 -7 1 -10 -2 -6 -7 10 -18 35 0 35 25 0 13 -1 23 -2 23
-2 -1 -11 -3 -20 -6z"/>
<path d="M1890 2315 c0 -14 4 -25 10 -25 5 0 7 8 3 18 -6 15 -4 15 15 -2 22
-19 22 -19 22 10 0 20 -3 25 -9 15 -6 -9 -11 -10 -15 -2 -12 19 -26 12 -26
-14z"/>
<path d="M1953 2315 c-3 -9 -3 -19 1 -22 3 -4 6 1 6 10 0 10 5 17 10 17 6 0
10 -7 10 -15 0 -8 5 -15 10 -15 6 0 10 7 10 15 0 21 18 19 23 -2 4 -17 5 -17
6 0 0 9 5 17 10 17 5 0 12 -8 14 -17 4 -15 5 -15 7 2 1 20 1 20 10 0 8 -19 9
-19 9 3 1 20 -3 22 -59 22 -45 0 -62 -4 -67 -15z"/>
<path d="M861 2233 c-6 -14 -9 -28 -6 -31 3 -3 5 0 5 6 0 7 7 12 15 12 8 0 15
-4 15 -8 0 -4 11 -9 25 -10 22 -1 25 2 25 28 0 27 -2 29 -19 20 -11 -5 -22
-15 -24 -22 -4 -8 -6 -7 -6 4 -2 28 -17 29 -30 1z"/>
<path d="M980 2235 c0 -14 -5 -25 -11 -25 -6 0 -9 9 -6 20 3 11 1 18 -4 14
-18 -11 -10 -44 11 -44 16 0 20 7 20 30 0 17 -2 30 -5 30 -3 0 -5 -11 -5 -25z"/>
<path d="M1023 2245 c4 -8 2 -17 -4 -20 -14 -9 -1 -25 22 -25 24 0 25 18 2 37
-10 8 -12 12 -5 8 6 -3 12 -1 12 4 0 6 -7 11 -16 11 -10 0 -14 -6 -11 -15z"/>
<path d="M1091 2230 c0 -28 2 -31 9 -15 7 17 9 18 14 4 8 -19 66 -24 66 -6 0
7 4 6 10 -3 8 -12 10 -10 11 10 l1 25 7 -25 7 -25 8 25 8 25 8 -25 8 -25 2 25
2 25 8 -25 8 -25 1 26 c1 24 -2 27 -32 25 -18 -1 -38 -6 -44 -9 -7 -4 -15 -3
-18 3 -5 8 -11 8 -20 0 -10 -8 -14 -7 -18 7 -3 13 -5 11 -6 -7 l-1 -25 -20 25
-20 25 1 -35z"/>
<path d="M1690 2183 c0 -24 4 -31 17 -29 9 2 19 9 21 17 3 8 1 10 -4 6 -4 -4
-14 3 -21 15 -12 22 -12 22 -13 -9z"/>
<path d="M1734 2185 c9 -35 21 -44 47 -38 12 4 19 14 19 30 0 13 -4 21 -10 18
-5 -3 -10 -13 -10 -21 0 -8 -4 -14 -10 -14 -5 0 -10 6 -10 14 0 7 -7 20 -17
27 -15 13 -16 11 -9 -16z"/>
<path d="M1882 2180 c0 -19 2 -29 5 -22 6 15 30 16 35 2 4 -14 58 -19 80 -8
10 5 19 4 23 -2 10 -17 35 2 35 27 0 16 -4 22 -11 17 -7 -4 -26 -7 -43 -6 -21
1 -26 -2 -16 -8 8 -5 12 -12 8 -15 -3 -3 -13 1 -22 10 -9 10 -23 15 -31 12 -7
-3 -16 -1 -19 6 -3 9 -5 9 -5 0 -1 -19 -29 -15 -34 5 -3 9 -5 1 -5 -18z"/>
<path d="M1810 2175 c0 -16 6 -25 15 -25 8 0 15 9 15 19 0 10 -7 21 -15 25
-11 4 -15 -1 -15 -19z"/>
<path d="M1731 2091 c-7 -12 -10 -27 -7 -34 3 -9 5 -9 5 1 1 13 31 17 31 4 0
-5 7 -9 15 -9 8 0 12 4 9 9 -3 4 -2 14 2 20 6 9 10 5 15 -12 7 -24 7 -24 8 5
1 24 -3 31 -19 31 -13 0 -20 -7 -20 -21 -1 -18 -2 -18 -14 4 l-13 24 -12 -22z"/>
<path d="M1900 2102 c0 -6 -6 -9 -14 -6 -8 3 -17 0 -21 -6 -6 -9 -9 -9 -15 0
-10 17 -30 3 -30 -21 0 -11 7 -19 18 -19 14 0 15 2 2 10 -13 8 -13 10 2 10 9
0 19 -6 21 -12 3 -7 6 -3 6 10 1 26 21 30 21 4 0 -10 6 -19 13 -19 14 0 17 40
5 53 -5 4 -8 2 -8 -4z"/>
<path d="M1942 2092 c-13 -4 -17 -31 -4 -33 40 -7 51 -4 57 15 7 20 7 20 15
-4 l8 -25 1 27 c1 23 -2 26 -32 25 -19 0 -39 -3 -45 -5z"/>
<path d="M981 2093 c1 -21 3 -30 6 -20 6 22 22 22 38 0 11 -14 16 -15 28 -5
11 9 17 10 22 2 5 -8 10 -8 20 0 9 7 15 8 19 1 11 -18 36 0 36 26 0 13 -4 21
-10 18 -16 -10 -150 -14 -150 -5 0 5 8 11 18 13 13 4 11 5 -5 6 -20 1 -23 -4
-22 -36z"/>
<path d="M925 2006 c0 -27 15 -49 15 -23 0 10 6 17 13 17 9 0 8 3 -2 9 -11 7
-11 9 0 14 9 3 6 6 -6 6 -16 1 -21 -5 -20 -23z"/>
<path d="M1181 2021 c-8 -5 -20 -7 -28 -4 -9 4 -13 -3 -12 -23 1 -29 1 -29 8
-4 7 25 7 25 13 3 9 -35 38 -29 38 7 0 34 0 33 -19 21z"/>
<path d="M975 2012 c-3 -3 -5 -14 -5 -24 0 -26 47 -20 55 7 6 19 7 19 16 -5 8
-20 12 -22 19 -10 5 8 10 11 10 5 0 -5 14 -11 30 -12 26 -2 30 1 30 22 0 16
-6 25 -15 25 -8 0 -15 -7 -15 -15 0 -8 5 -15 12 -15 6 0 8 -3 4 -7 -4 -5 -14
1 -22 11 -8 11 -14 16 -14 10 0 -5 -5 -2 -10 6 -8 12 -10 12 -10 1 0 -9 -4
-10 -12 -3 -14 10 -63 13 -73 4z"/>
<path d="M1670 1776 c-6 -16 -9 -31 -6 -33 2 -3 7 6 12 19 l7 23 8 -23 c6 -15
17 -22 34 -22 22 0 25 4 24 33 0 17 -3 26 -6 20 -2 -7 -11 -13 -19 -13 -8 0
-14 -6 -14 -12 -1 -7 -7 -2 -15 12 l-13 25 -12 -29z"/>
<path d="M1828 1775 c-3 -13 -3 -27 0 -30 10 -9 43 -5 37 5 -3 5 -13 6 -23 3
-16 -6 -16 -6 1 11 9 10 15 22 12 27 -11 16 -23 9 -27 -16z"/>
<path d="M2043 1782 c-16 -2 -23 -10 -22 -25 1 -17 2 -18 6 -4 5 20 23 23 23
5 0 -9 3 -9 9 1 7 11 10 10 14 -5 4 -16 5 -16 6 3 1 26 -6 30 -36 25z"/>
<path d="M1952 1763 c5 -26 35 -28 48 -4 10 19 8 21 -20 21 -25 0 -31 -4 -28
-17z"/>
<path d="M861 1684 c-15 -34 -14 -39 5 -23 9 7 18 9 22 3 4 -5 17 -10 30 -12
19 -3 22 1 21 30 -2 30 -2 31 -6 6 -2 -16 -9 -28 -15 -28 -5 0 -7 7 -4 16 5
14 4 15 -9 4 -12 -10 -15 -10 -15 3 0 27 -17 28 -29 1z"/>
<path d="M979 1698 c-1 -7 -1 -19 0 -25 3 -20 -17 -15 -22 5 -4 13 -5 11 -6
-5 -1 -17 5 -23 19 -23 16 0 20 7 20 30 0 29 -9 43 -11 18z"/>
<path d="M1029 1705 c-1 -3 -2 -8 -3 -12 -1 -5 -4 -13 -8 -19 -4 -6 -5 -14 -1
-18 10 -10 43 -7 43 5 0 6 -9 8 -22 4 -20 -5 -21 -4 -5 5 18 12 24 40 7 40 -5
0 -11 -2 -11 -5z"/>
<path d="M1091 1680 c0 -28 2 -31 9 -15 7 17 9 18 14 4 4 -9 19 -16 36 -17 23
0 30 4 30 18 0 23 -16 35 -26 18 -5 -8 -10 -6 -15 8 -7 17 -8 16 -9 -6 l0 -25
-20 25 -20 25 1 -35z"/>
<path d="M1786 1638 c3 -13 8 -25 11 -27 8 -9 68 -9 85 0 9 5 19 5 22 1 3 -4
26 -8 53 -8 45 1 48 3 51 30 3 25 1 28 -15 21 -10 -4 -31 -8 -48 -9 -16 -1
-35 -5 -42 -9 -7 -4 -13 0 -16 10 -4 14 -5 13 -6 -4 -1 -27 -19 -39 -34 -24
-9 9 -8 11 4 6 10 -4 16 -1 16 8 0 9 -12 14 -31 14 -17 0 -25 -2 -18 -4 15 -6
16 -33 1 -33 -5 0 -7 5 -3 12 4 7 3 8 -4 4 -8 -5 -12 0 -12 13 0 12 -5 21 -11
21 -6 0 -8 -9 -3 -22z"/>
<path d="M1722 1545 c-16 -35 -14 -44 3 -21 13 17 15 18 15 3 0 -12 8 -17 30
-17 27 0 30 3 29 33 l-1 32 -11 -27 c-13 -35 -23 -35 -31 -3 -8 32 -20 32 -34
0z"/>
<path d="M1882 1540 c0 -19 2 -29 5 -22 5 14 33 17 33 3 0 -5 14 -3 31 6 25
12 33 13 42 3 9 -10 9 -12 -3 -8 -8 3 -24 2 -35 -3 -13 -5 2 -7 43 -7 62 0 62
0 62 29 0 28 -2 29 -22 18 -21 -12 -22 -12 -3 -19 14 -5 15 -9 6 -14 -8 -5
-18 -1 -27 12 -11 17 -20 19 -49 12 -29 -7 -35 -5 -35 9 -1 14 -2 14 -11 -1
-5 -10 -14 -18 -19 -18 -5 0 -11 8 -13 18 -3 9 -5 1 -5 -18z"/>
<path d="M1810 1535 c0 -16 6 -25 15 -25 8 0 15 9 15 19 0 10 -7 21 -15 25
-11 4 -15 -1 -15 -19z"/>
<path d="M1740 1451 c-7 -18 -10 -34 -6 -38 3 -3 6 -1 6 5 0 7 7 12 15 12 8 0
15 -4 15 -8 0 -5 7 -9 15 -9 10 0 13 6 9 19 -3 10 -1 18 5 18 5 0 12 -10 14
-22 3 -18 5 -16 6 7 1 25 -3 31 -19 31 -11 0 -20 -7 -20 -16 -1 -10 -5 -7 -14
8 l-13 24 -13 -31z"/>
<path d="M1910 1462 c0 -5 -18 -7 -41 -5 -37 3 -40 1 -37 -19 2 -12 10 -23 18
-25 13 -4 13 -3 0 6 -13 10 -13 11 0 11 13 0 13 1 0 10 -9 6 -10 10 -3 10 7 0
17 -8 22 -17 10 -17 10 -17 11 0 0 9 4 17 9 17 5 0 12 -8 14 -17 4 -17 5 -17
6 0 0 9 6 17 11 17 6 0 10 5 10 10 0 6 -4 10 -10 10 -5 0 -10 -4 -10 -8z"/>
<path d="M1953 1453 c-18 -7 -16 -30 4 -37 21 -8 38 8 30 28 -7 16 -13 18 -34
9z"/>
<path d="M926 1571 c-9 -14 3 -53 14 -46 5 3 10 0 12 -7 7 -19 28 1 27 25 -1
20 -2 20 -9 -3 l-7 -25 -15 34 c-9 20 -18 29 -22 22z"/>
<path d="M1111 1568 c-1 -21 -27 -24 -34 -5 -3 6 -5 -4 -5 -23 0 -19 2 -27 5
-17 5 18 33 24 33 6 0 -5 4 -8 9 -4 5 3 12 1 16 -5 9 -15 25 -2 25 21 0 21
-29 27 -31 7 -1 -7 -5 -2 -9 12 -5 17 -8 19 -9 8z"/>
<path d="M991 1541 c0 -24 1 -24 9 -6 8 19 9 19 9 -2 1 -20 4 -21 25 -12 19 9
22 14 13 24 -10 10 -13 10 -19 -4 -5 -13 -7 -12 -7 5 -1 11 -8 21 -16 21 -10
0 -15 -10 -14 -26z"/>
<path d="M1228 1562 c-18 -3 -25 -37 -10 -46 14 -9 34 11 30 30 -2 12 -9 18
-20 16z"/>
<path d="M920 1455 c-6 -15 -8 -30 -5 -33 3 -3 5 0 5 6 0 16 27 15 34 0 3 -7
3 -2 0 12 -10 40 -22 46 -34 15z"/>
<path d="M991 1453 c-1 -30 2 -33 27 -33 21 0 24 2 12 10 -13 8 -12 10 3 10 9
0 17 -6 18 -12 0 -7 5 -2 11 12 l11 25 7 -25 8 -25 2 25 2 25 8 -25 c7 -23 8
-23 9 9 1 25 -2 31 -11 23 -7 -5 -28 -8 -47 -7 -27 2 -35 -1 -39 -19 -6 -19
-7 -18 -13 9 l-7 30 -1 -32z"/>
<path d="M1133 1463 c-7 -2 -13 -12 -13 -22 0 -20 40 -26 52 -8 6 9 8 8 9 -3
0 -8 5 -4 9 10 8 24 8 24 9 3 1 -13 6 -23 11 -23 12 0 13 20 1 39 -8 12 -12
12 -24 2 -10 -8 -17 -9 -22 -1 -7 11 -13 11 -32 3z"/>
<path d="M1123 834 c-7 -7 -13 -19 -14 -26 0 -7 -4 -4 -9 7 -8 19 -9 19 -9 -2
-1 -27 25 -31 32 -5 4 16 5 16 6 0 2 -28 17 -21 16 7 -2 32 -7 36 -22 19z"/>
<path d="M1005 832 c-3 -3 -5 -15 -4 -26 1 -18 2 -18 9 4 l7 25 11 -27 c8 -20
16 -25 32 -21 14 4 20 12 18 27 -2 15 -11 21 -35 22 -18 1 -35 -1 -38 -4z"/>
<path d="M870 725 c0 -30 3 -35 23 -34 16 1 18 2 5 6 -10 2 -18 8 -18 13 0 5
8 11 18 13 16 4 16 5 0 6 -10 0 -18 5 -18 10 0 5 8 12 18 14 13 4 11 5 -5 6
-20 1 -23 -4 -23 -34z"/>
<path d="M1092 744 c-8 -9 -22 -12 -34 -8 -14 4 -24 -1 -35 -15 -8 -12 -19
-19 -24 -16 -15 10 -10 28 6 21 8 -3 15 -1 15 4 0 11 -27 16 -67 12 -26 -3
-33 -9 -32 -26 0 -20 1 -20 8 -1 8 20 8 20 13 0 5 -16 6 -17 7 -2 1 20 21 23
21 3 0 -16 37 -28 46 -15 3 5 11 6 17 2 21 -13 68 -11 74 2 2 8 3 22 1 33 -3
17 -5 18 -16 6z"/>
<path d="M1150 750 c0 -5 -7 -10 -15 -10 -8 0 -15 -4 -15 -10 0 -5 7 -7 16 -3
12 4 15 2 12 -8 -3 -8 -11 -13 -17 -11 -7 1 -10 -2 -7 -7 3 -5 15 -7 26 -4 14
4 20 14 20 34 0 16 -4 29 -10 29 -5 0 -10 -4 -10 -10z"/>
<path d="M1181 718 c0 -22 1 -22 9 -3 7 17 9 17 9 3 1 -10 7 -17 14 -15 6 1
11 -4 9 -11 -1 -8 5 -12 15 -10 11 2 19 14 21 31 3 21 -1 27 -17 27 -10 0 -22
-6 -24 -12 -4 -10 -6 -10 -6 0 -2 23 -31 13 -30 -10z"/>
<path d="M1754 835 c-12 -30 3 -43 50 -43 40 1 46 4 45 22 0 19 -1 20 -8 2 -7
-17 -9 -16 -24 8 -19 28 -54 35 -63 11z m46 -15 c0 -11 -6 -20 -14 -20 -18 0
-29 16 -21 30 11 18 35 11 35 -10z"/>
<path d="M1887 833 c-4 -3 -7 -17 -7 -29 0 -18 4 -22 18 -17 9 4 20 11 24 17
5 7 8 7 8 -1 0 -7 7 -13 15 -13 9 0 15 9 14 23 0 21 -1 21 -9 2 -8 -18 -9 -18
-9 -2 -1 10 -5 16 -10 12 -5 -3 -12 -1 -16 5 -7 12 -19 13 -28 3z"/>
<path d="M1680 725 c0 -24 5 -35 14 -35 26 0 46 12 47 29 0 12 2 12 9 -4 7
-17 9 -17 9 -2 1 20 21 24 21 3 0 -19 29 -29 45 -16 9 8 15 8 20 0 9 -15 25
-2 25 20 0 14 -7 18 -31 18 -17 -1 -35 5 -40 13 -7 12 -9 12 -9 -1 0 -11 -13
-15 -50 -17 -48 -2 -68 11 -32 20 13 4 11 5 -5 6 -20 1 -23 -4 -23 -34z"/>
<path d="M1911 753 c0 -7 -8 -13 -17 -13 -10 0 -14 -7 -12 -22 2 -17 10 -22
38 -22 31 -1 35 2 38 27 3 26 2 27 -17 18 -16 -9 -20 -8 -24 7 -3 9 -5 11 -6
5z"/>
<path d="M1970 733 c0 -18 5 -33 10 -33 6 0 10 7 10 15 0 8 5 15 10 15 6 0 10
-7 10 -17 0 -14 2 -14 20 2 16 14 20 15 20 4 0 -8 -5 -20 -12 -27 -9 -9 -8
-12 4 -12 16 0 28 20 28 45 0 9 -13 14 -41 13 -25 0 -45 5 -50 13 -6 10 -9 4
-9 -18z"/>
<path d="M2400 1996 c0 -37 19 -51 22 -16 0 11 1 25 2 32 1 6 -5 13 -11 16 -9
2 -13 -8 -13 -32z"/>
<path d="M2450 2009 c0 -11 -4 -17 -10 -14 -16 10 -12 -11 5 -25 13 -11 15 -7
15 24 0 20 -2 36 -5 36 -3 0 -5 -9 -5 -21z"/>
<path d="M2474 1989 c0 -11 9 -16 26 -16 14 0 19 2 12 4 -9 4 -10 8 -2 18 8
10 5 13 -12 11 -15 0 -24 -7 -24 -17z"/>
<path d="M473 1700 c0 -14 2 -19 4 -12 4 9 9 10 18 2 9 -8 13 -5 13 13 0 15
-6 23 -18 23 -12 0 -17 -8 -17 -26z"/>
<path d="M341 1073 c1 -21 3 -31 6 -22 6 24 40 31 46 9 4 -14 15 -17 56 -17
48 1 51 3 50 27 -1 16 -3 19 -6 8 -4 -17 -33 -14 -33 4 0 5 5 6 12 2 7 -4 8
-3 4 5 -5 8 -12 9 -20 2 -7 -6 -17 -6 -26 -1 -9 5 -19 5 -27 -2 -10 -8 -13 -6
-13 6 0 10 -9 16 -25 16 -22 0 -25 -4 -24 -37z"/>
<path d="M510 1076 c0 -25 4 -36 15 -36 9 0 15 9 15 21 0 11 -7 27 -15 35 -13
14 -15 11 -15 -20z"/>
<path d="M699 1078 c-1 -30 -2 -29 -15 10 -3 10 -9 10 -23 2 -13 -7 -22 -7
-26 0 -4 7 -12 7 -25 0 -12 -6 -21 -7 -25 0 -10 17 -36 -2 -33 -24 4 -28 58
-33 58 -5 0 11 7 19 15 19 8 0 15 -9 15 -20 0 -16 7 -20 35 -20 33 0 35 2 35
35 0 44 -10 46 -11 3z"/>
<path d="M2228 1064 c-2 -19 0 -37 4 -40 4 -3 8 1 8 9 0 23 37 28 43 7 4 -15
13 -18 48 -15 24 1 47 3 52 4 4 0 6 18 6 39 -1 26 -3 30 -6 13 -9 -49 -41 -59
-56 -17 -5 12 -14 17 -26 13 -12 -3 -22 1 -25 9 -3 8 -14 14 -25 14 -14 0 -20
-9 -23 -36z"/>
<path d="M2589 1063 c-2 -28 -3 -31 -6 -12 -4 25 -7 26 -69 26 -58 1 -67 -2
-74 -21 -8 -20 -9 -20 -11 -1 -1 11 -1 23 -1 26 1 3 -6 6 -14 6 -11 0 -14 -9
-12 -30 3 -26 8 -31 33 -33 44 -3 62 4 68 27 6 23 27 17 27 -7 0 -8 3 -15 8
-15 62 -10 62 -10 62 32 0 50 -10 51 -11 2z"/>
<path d="M340 965 c0 -32 2 -35 30 -35 23 0 30 4 30 20 0 27 18 25 23 -2 4
-20 4 -19 6 5 1 21 -4 27 -19 27 -13 0 -20 -7 -20 -20 0 -13 -7 -20 -20 -20
-25 0 -26 17 -2 23 16 4 16 5 0 6 -26 2 -22 19 5 24 19 4 18 4 -5 6 -26 1 -28
-2 -28 -34z"/>
<path d="M580 990 c0 -5 -9 -10 -19 -10 -11 0 -22 -6 -24 -12 -4 -10 -6 -10
-6 0 -1 6 -10 12 -21 12 -15 0 -20 -7 -20 -25 0 -18 5 -25 19 -25 11 0 22 6
24 13 4 10 6 10 6 0 1 -8 14 -13 31 -13 29 0 30 2 28 35 -1 19 -6 35 -10 35
-4 0 -8 -4 -8 -10z"/>
<path d="M440 955 c0 -18 5 -25 20 -25 11 0 20 4 20 10 0 5 -7 7 -15 4 -10 -4
-15 0 -15 11 0 11 5 15 15 11 8 -3 15 -1 15 4 0 6 -9 10 -20 10 -15 0 -20 -7
-20 -25z"/>
<path d="M611 953 c2 -24 2 -25 6 -5 2 12 8 22 13 22 5 0 11 -10 13 -22 4 -20
4 -19 6 5 1 21 -4 27 -19 27 -15 0 -20 -6 -19 -27z"/>
<path d="M662 945 c2 -58 48 -43 48 16 0 14 -7 19 -25 19 -22 0 -24 -4 -23
-35z"/>
<path d="M2230 945 c0 -32 2 -35 30 -35 23 0 30 5 30 19 0 32 20 35 21 4 1
-18 3 -22 6 -10 3 10 2 25 -1 32 -7 20 -36 7 -36 -16 0 -12 -7 -19 -20 -19
-25 0 -26 17 -2 23 16 4 16 5 0 6 -26 2 -22 19 5 24 19 4 18 4 -5 6 -26 1 -28
-2 -28 -34z"/>
<path d="M2470 970 c0 -5 -7 -7 -15 -4 -8 4 -17 -1 -21 -10 -6 -15 -8 -15 -20
1 -12 17 -15 16 -38 -12 -24 -30 -44 -30 -32 0 3 10 11 13 18 9 10 -5 10 -4 1
6 -15 16 -33 4 -33 -21 0 -22 32 -39 38 -20 3 9 7 9 18 0 11 -9 17 -9 28 0 10
8 16 9 21 1 3 -5 17 -10 31 -10 22 0 24 4 22 35 -1 19 -6 35 -10 35 -4 0 -8
-4 -8 -10z"/>
<path d="M2513 963 c-7 -3 -13 -17 -12 -31 0 -15 3 -20 6 -12 14 43 16 44 23
15 l8 -30 1 27 c1 29 -7 38 -26 31z"/>
<path d="M2554 957 c-6 -15 0 -54 9 -63 11 -12 37 17 37 41 0 13 -7 26 -16 29
-22 8 -24 8 -30 -7z"/>
<path d="M940 415 c0 -28 4 -35 20 -35 15 0 20 7 20 26 0 33 16 23 24 -16 6
-30 6 -31 31 -14 17 11 25 24 23 38 -3 18 -9 21 -50 20 -27 -1 -48 2 -48 7 0
5 -4 9 -10 9 -5 0 -10 -16 -10 -35z"/>
<path d="M1121 418 c-1 -35 0 -36 32 -35 31 2 41 17 16 26 -7 2 -9 -1 -4 -8 5
-8 1 -11 -11 -9 -12 2 -21 15 -25 33 -6 29 -6 29 -8 -7z"/>
<path d="M1717 443 c-12 -12 -7 -40 9 -54 12 -10 20 -10 34 -1 12 7 21 8 25 2
12 -20 45 -11 46 13 1 21 1 21 9 -3 7 -22 8 -21 9 13 1 34 -1 36 -18 26 -10
-7 -18 -19 -17 -27 0 -8 -5 -17 -11 -19 -8 -3 -13 3 -13 14 0 11 -5 24 -12 31
-13 13 -50 16 -61 5z m48 -28 c0 -11 -7 -21 -16 -23 -18 -3 -33 23 -23 39 10
17 39 5 39 -16z"/>
<path d="M1960 437 c-8 -7 -15 -18 -15 -26 0 -8 -6 -16 -12 -18 -8 -3 -13 4
-13 17 0 12 -4 19 -9 15 -5 -3 -12 -1 -16 4 -13 22 -35 -2 -35 -38 0 -26 3
-32 10 -21 6 9 23 14 49 13 36 -2 41 1 42 20 1 21 2 20 9 -3 7 -22 8 -21 9 13
1 42 2 41 -19 24z"/>
<path d="M1999 438 c-1 -2 -3 -15 -5 -30 -2 -22 1 -28 17 -28 24 0 25 18 2 36
-17 13 -17 14 1 7 13 -4 17 -3 12 5 -6 11 -24 17 -27 10z"/>
<path d="M1071 408 c-1 -22 4 -28 19 -28 15 0 20 6 19 28 -2 23 -2 24 -6 5 -2
-13 -8 -23 -13 -23 -5 0 -11 10 -13 23 -4 19 -4 18 -6 -5z"/>
<path d="M1627 333 c-10 -10 -8 -71 2 -77 5 -4 11 -2 13 4 1 5 15 11 31 12 22
2 27 7 27 27 0 28 15 18 23 -14 4 -15 5 -14 6 7 1 18 -6 31 -18 38 -29 15 -32
13 -25 -15 5 -21 3 -24 -11 -19 -12 5 -13 9 -5 14 9 6 9 9 0 15 -6 4 -17 2
-23 -5 -9 -9 -7 -15 8 -27 15 -12 16 -14 3 -10 -9 3 -19 1 -22 -6 -3 -7 -5 5
-3 26 2 20 2 37 2 37 -1 0 -5 -3 -8 -7z"/>
<path d="M1743 301 c-1 -27 1 -30 5 -11 l5 25 8 -25 c6 -22 7 -21 8 11 1 23
-4 36 -12 36 -8 0 -13 -14 -14 -36z"/>
<path d="M1890 329 c0 -5 -4 -8 -9 -4 -5 3 -12 1 -16 -5 -4 -7 -12 -7 -25 0
-13 7 -21 6 -30 -5 -21 -26 -5 -42 44 -42 46 -1 46 -1 46 33 0 19 -2 34 -5 34
-3 0 -5 -5 -5 -11z"/>
<path d="M2031 305 c0 -22 3 -33 6 -25 14 43 16 44 24 15 8 -30 8 -30 6 -2 -1
15 -6 27 -11 26 -5 0 -13 5 -17 13 -6 8 -8 -2 -8 -27z"/>
<path d="M2080 312 c0 -33 21 -67 34 -55 9 9 7 71 -2 77 -4 2 -6 -11 -4 -31 3
-26 1 -34 -8 -28 -6 4 -10 15 -7 25 2 10 1 24 -4 31 -6 10 -9 3 -9 -19z"/>
<path d="M1981 312 c-6 -10 -11 -12 -11 -4 0 6 -9 12 -20 12 -15 0 -20 -6 -19
-27 2 -24 2 -25 6 -5 2 12 9 22 14 22 5 0 9 -10 10 -22 0 -13 3 -17 6 -10 2 6
9 10 13 7 5 -3 6 -13 3 -21 -4 -12 -1 -15 13 -12 25 4 33 63 10 71 -9 4 -20
-1 -25 -11z"/>
<path d="M478 95 c2 -19 8 -35 13 -35 5 0 6 6 3 14 -3 8 2 16 13 19 16 4 16 5
1 6 -10 0 -18 6 -18 12 0 6 9 9 19 6 10 -2 25 -1 32 4 9 6 0 9 -26 9 -41 0
-41 0 -37 -35z"/>
<path d="M785 91 c0 -22 3 -37 7 -35 5 3 8 21 8 40 0 19 -3 34 -8 34 -4 0 -7
-18 -7 -39z"/>
<path d="M880 119 c0 -5 5 -7 10 -4 6 4 10 -7 10 -24 0 -17 5 -31 10 -31 6 0
10 14 10 31 0 17 4 28 10 24 6 -3 10 -1 10 4 0 6 -13 11 -30 11 -16 0 -30 -5
-30 -11z"/>
<path d="M1064 118 c-5 -8 -2 -9 9 -5 14 5 17 0 17 -23 0 -17 5 -30 10 -30 6
0 10 14 10 31 0 17 4 28 10 24 6 -3 10 -17 10 -31 0 -13 4 -24 10 -24 5 0 7 6
4 14 -3 8 4 15 19 18 15 3 24 0 24 -8 0 -7 -6 -10 -14 -7 -7 3 -13 0 -13 -6 0
-6 9 -11 21 -11 15 0 20 5 17 22 -2 17 -10 23 -33 25 -16 1 -31 7 -33 13 -5
14 -59 13 -68 -2z"/>
<path d="M1309 118 c-1 -7 0 -21 1 -31 1 -16 -1 -16 -19 -5 -14 9 -17 14 -8
20 9 6 9 8 0 8 -31 0 -14 -42 20 -48 15 -3 21 12 16 44 0 4 5 11 13 15 10 7 9
9 -4 9 -10 0 -19 -6 -19 -12z"/>
<path d="M1816 109 c-14 -14 -23 -16 -32 -8 -17 14 -34 3 -34 -21 0 -25 27
-33 39 -12 6 9 11 12 11 5 0 -8 16 -12 48 -11 26 1 39 3 30 6 -10 2 -18 10
-18 19 0 10 6 13 18 8 13 -5 14 -3 5 6 -14 14 -33 4 -34 -19 -1 -9 -4 -3 -8
14 -6 30 -6 30 -25 13z"/>
<path d="M1900 95 c0 -19 5 -35 10 -35 6 0 10 16 10 35 0 19 -4 35 -10 35 -5
0 -10 -16 -10 -35z"/>
<path d="M2080 95 c0 -19 5 -35 11 -35 6 0 9 7 6 15 -4 8 -2 17 3 20 5 3 11
-5 13 -17 l4 -23 2 23 c1 21 -19 52 -33 52 -3 0 -6 -16 -6 -35z"/>
<path d="M569 108 c-1 -2 -2 -18 -4 -36 -3 -38 11 -51 33 -29 14 15 14 17 -1
23 -9 3 -17 14 -17 23 0 14 2 14 10 1 8 -13 10 -12 10 3 0 13 -26 26 -31 15z"/>
<path d="M612 88 c2 -18 11 -24 36 -26 27 -3 32 0 32 17 0 12 5 21 10 21 6 0
10 -9 10 -19 0 -25 12 -32 30 -20 13 7 12 9 -2 9 -11 0 -18 7 -18 18 0 14 2
15 10 2 5 -8 12 -11 15 -8 14 13 -6 26 -38 25 -24 -2 -31 -6 -29 -19 2 -10 -2
-18 -8 -18 -5 0 -10 10 -11 23 -1 21 -1 21 -9 -3 -8 -24 -8 -24 -9 -2 -1 12
-6 22 -12 22 -6 0 -9 -10 -7 -22z"/>
<path d="M978 83 c3 -15 7 -22 10 -15 3 10 7 10 16 -2 8 -11 15 -13 26 -6 13
8 12 10 -2 10 -11 0 -18 7 -18 18 0 13 2 14 9 3 5 -8 11 -9 15 -3 9 15 -13 26
-28 13 -9 -7 -16 -7 -23 0 -7 7 -9 2 -5 -18z"/>
<path d="M1210 85 c0 -14 5 -25 11 -25 5 0 7 5 4 10 -3 6 -3 16 1 22 6 9 10 5
15 -12 l7 -25 1 28 c1 21 -4 27 -19 27 -15 0 -20 -7 -20 -25z"/>
<path d="M1340 95 c-10 -12 -10 -18 0 -29 16 -20 42 -8 38 17 -4 26 -21 32
-38 12z"/>
<path d="M1391 83 c2 -24 2 -25 6 -5 5 26 29 24 27 -2 -2 -24 14 -19 19 7 l4
22 2 -22 c0 -13 6 -23 12 -23 6 0 9 10 7 23 -2 18 -10 23 -40 25 -36 3 -38 2
-37 -25z"/>
<path d="M1550 86 c0 -14 5 -28 11 -32 8 -4 9 0 4 15 -4 12 -2 21 4 21 6 0 11
5 11 10 0 6 -7 10 -15 10 -9 0 -15 -9 -15 -24z"/>
<path d="M1670 85 c0 -31 17 -33 23 -2 l4 22 2 -22 c0 -13 5 -23 10 -23 4 0 6
11 3 25 -3 16 -11 25 -23 25 -14 0 -19 -7 -19 -25z"/>
<path d="M1954 99 c-5 -8 -2 -11 8 -7 8 4 15 1 15 -7 0 -7 -6 -11 -14 -8 -7 3
-13 0 -13 -6 0 -6 9 -11 21 -11 15 0 20 5 17 22 -4 25 -23 35 -34 17z"/>
<path d="M2000 84 c0 -13 4 -24 10 -24 5 0 7 6 4 14 -3 8 -1 17 5 21 6 3 11 0
11 -8 0 -19 26 -41 34 -29 3 6 -1 13 -10 16 -8 3 -12 10 -9 16 4 6 11 8 16 5
5 -4 9 -2 9 3 0 6 -16 10 -35 10 -30 0 -35 -3 -35 -24z"/>
<path d="M2195 101 c-12 -12 -3 -41 13 -41 13 0 14 2 3 9 -7 5 -12 14 -9 22 3
8 13 3 30 -15 14 -16 28 -24 32 -18 3 5 -1 13 -10 16 -8 3 -12 10 -9 16 4 6
11 8 16 5 5 -4 9 -2 9 3 0 10 -66 12 -75 3z"/>
<path d="M2311 88 c-1 -22 4 -28 19 -28 15 0 20 6 19 28 -2 23 -2 24 -6 5 -2
-13 -8 -23 -13 -23 -5 0 -11 10 -13 23 -4 19 -4 18 -6 -5z"/>
<path d="M2360 85 c0 -14 4 -25 9 -25 5 0 11 11 13 25 4 17 1 25 -8 25 -8 0
-14 -11 -14 -25z"/>
<path d="M2393 94 c-7 -19 21 -51 31 -35 4 6 2 11 -3 11 -6 0 -11 8 -11 18 0
14 2 15 10 2 8 -13 10 -12 10 3 0 21 -28 23 -37 1z"/>
</g>
</svg>
