<?xml version="1.0" standalone="no"?>
<!DOCTYPE svg PUBLIC "-//W3C//DTD SVG 20010904//EN"
 "http://www.w3.org/TR/2001/REC-SVG-20010904/DTD/svg10.dtd">
<svg version="1.0" xmlns="http://www.w3.org/2000/svg"
 width="148.000000pt" height="148.000000pt" viewBox="0 0 148.000000 148.000000"
 preserveAspectRatio="xMidYMid meet">
<metadata>
Created by potrace 1.10, written by Peter Selinger 2001-2011
</metadata>
<g transform="translate(0.000000,148.000000) scale(0.100000,-0.100000)"
fill="#000000" stroke="none">
<path d="M585 1456 c-150 -35 -282 -111 -382 -220 -75 -82 -118 -155 -156
-263 -30 -83 -32 -96 -32 -233 0 -137 2 -150 32 -233 43 -122 86 -189 178
-282 93 -92 160 -135 282 -178 83 -30 96 -32 233 -31 130 0 153 3 225 27 115
38 199 91 290 182 91 91 144 175 182 290 24 72 27 94 27 225 0 131 -3 153 -27
225 -38 115 -91 199 -182 290 -144 144 -285 205 -490 211 -79 2 -140 -1 -180
-10z m143 -161 c-2 -1 -27 -5 -55 -9 -47 -6 -53 -5 -53 11 0 39 -13 41 -83 18
-62 -21 -187 -92 -187 -106 0 -3 9 -14 20 -24 19 -18 20 -17 20 3 0 35 114
101 187 107 40 4 43 -11 6 -27 -94 -39 -133 -59 -177 -92 l-49 -38 -59 59 -59
59 63 47 c114 86 254 140 383 149 l40 3 3 -79 c2 -43 2 -80 0 -81z m203 135
c68 -19 177 -75 247 -127 l63 -47 -60 -60 -60 -59 -37 33 c-58 50 -173 101
-259 113 l-75 11 0 81 0 81 69 -7 c37 -4 88 -13 112 -19z m-203 -315 c-2 -1
-17 -5 -34 -8 l-31 -6 -17 76 c-9 42 -13 80 -9 84 4 4 26 9 48 11 l40 3 3 -79
c2 -43 2 -80 0 -81z m172 133 c54 -17 141 -63 178 -95 l33 -28 -58 -57 -58
-57 -57 37 c-32 20 -58 43 -58 50 0 6 1 12 3 12 1 0 17 4 36 10 19 5 31 7 28
3 -3 -3 4 -13 16 -23 17 -14 19 -21 10 -32 -7 -7 -8 -19 -4 -26 5 -8 14 -3 30
18 12 17 19 35 16 40 -7 12 -99 60 -114 60 -5 0 -15 -16 -21 -36 -9 -26 -16
-34 -28 -29 -9 3 -35 9 -59 12 l-43 6 0 82 0 82 58 -9 c31 -5 73 -14 92 -20z
m-284 -33 c0 -23 8 -56 17 -75 19 -38 17 -45 -20 -55 -16 -3 -44 -17 -65 -30
-29 -19 -38 -22 -47 -11 -6 7 -8 15 -5 19 3 3 -15 26 -40 51 l-45 46 33 25
c33 25 136 72 159 72 7 0 12 -17 13 -42z m-306 -131 c-49 -57 -98 -168 -112
-257 l-13 -77 -80 0 -81 0 7 63 c16 140 59 250 146 365 l47 63 60 -60 59 -60
-33 -37z m1025 49 c66 -99 101 -196 114 -314 l7 -69 -81 0 -81 0 -11 75 c-12
86 -63 201 -113 259 l-33 37 59 60 58 59 24 -28 c12 -15 38 -50 57 -79z m-891
-40 c26 -32 67 -82 92 -110 65 -75 86 -103 78 -103 -6 0 -114 110 -114 116 0
1 -29 30 -65 65 -51 49 -62 65 -54 76 6 7 13 13 14 13 1 0 24 -26 49 -57z m-5
-140 c-17 -23 -32 -43 -34 -43 -5 0 -139 60 -143 65 -5 4 23 48 61 98 l30 39
58 -58 58 -57 -30 -44z m770 37 c36 -70 51 -117 60 -185 l8 -55 -84 0 c-80 0
-83 1 -83 23 0 44 -30 125 -64 174 l-34 48 56 58 57 58 28 -33 c16 -18 41 -58
56 -88z m-479 20 c0 -62 -3 -80 -14 -80 -10 0 -20 24 -30 69 -21 91 -21 91 14
91 l30 0 0 -80z m127 66 c3 -2 -46 -145 -53 -154 -1 -2 -13 0 -28 4 -25 6 -26
8 -26 86 l0 81 52 -7 c29 -4 54 -9 55 -10z m-202 -35 c-2 -26 3 -53 16 -77 10
-21 18 -38 16 -40 -1 -1 -16 -8 -32 -17 l-31 -15 -52 63 c-57 70 -57 70 19
104 63 29 69 28 64 -18z m274 -3 c20 -18 20 -45 0 -32 -5 3 -9 2 -8 -3 3 -19
-2 -34 -10 -29 -11 7 -33 -18 -24 -27 3 -4 0 -7 -7 -7 -7 0 -10 -3 -7 -7 4 -3
2 -13 -4 -22 -6 -9 9 7 35 34 25 28 46 53 46 58 0 10 30 9 30 -1 0 -18 -112
-121 -126 -115 -8 3 -14 9 -14 13 0 5 -7 10 -16 12 -13 2 -11 8 11 32 18 19
25 37 22 52 -2 13 0 21 5 18 5 -3 9 0 7 7 -6 51 18 57 60 17z m-330 -168 c0
-3 -6 -14 -14 -24 -15 -19 -17 -19 -85 14 -39 19 -70 38 -70 43 0 6 12 25 26
44 l26 34 58 -53 c32 -29 58 -55 59 -58z m456 26 c14 -28 28 -72 31 -98 l7
-48 -82 0 c-61 0 -81 3 -81 13 0 8 -11 35 -24 61 l-24 47 57 54 c52 50 57 53
73 38 10 -9 29 -39 43 -67z m-757 44 c12 -12 22 -17 22 -13 0 4 5 0 11 -9 5
-10 15 -18 22 -18 7 0 6 4 -3 10 -21 13 -6 12 25 -2 16 -7 24 -17 20 -27 -4
-15 -25 -119 -25 -127 0 -2 -31 -4 -70 -4 -40 0 -70 -4 -70 -10 0 -6 30 -10
70 -10 39 0 70 -4 70 -9 0 -5 3 -17 6 -26 6 -14 1 -16 -22 -15 -16 1 -33 1
-39 0 -5 -1 -25 -1 -44 0 -22 1 -31 -2 -27 -9 4 -6 3 -11 -3 -11 -5 0 -12 6
-14 13 -3 7 -6 4 -6 -7 -1 -17 4 -18 50 -12 29 4 64 9 78 12 24 5 27 2 38 -38
7 -24 28 -67 47 -95 l34 -50 -57 -57 -58 -58 -30 39 c-45 56 -82 135 -104 221
-19 76 -25 129 -8 82 6 -17 7 0 5 53 -3 53 -1 75 6 71 7 -4 8 -2 4 5 -4 6 -3
18 4 26 6 7 10 19 9 27 -3 18 18 68 29 68 4 0 18 -9 30 -20z m431 -105 c-1
-41 -2 -75 -3 -75 -1 0 -17 20 -35 44 -19 24 -42 47 -52 49 -11 3 -19 3 -19 1
0 -3 23 -27 51 -54 29 -28 50 -52 48 -53 -2 -2 -38 -2 -81 1 l-76 4 10 29 10
28 40 -20 c22 -11 42 -19 44 -16 2 2 -14 12 -36 22 -22 10 -40 21 -40 25 0 17
46 63 74 76 62 27 67 22 65 -61z m63 69 c3 -3 -3 -27 -13 -54 -10 -27 -16 -57
-12 -66 4 -11 2 -15 -6 -13 -7 3 -12 8 -12 12 1 4 1 34 1 67 0 52 3 60 18 60
10 0 21 -2 24 -6z m48 -23 c0 -4 -6 -13 -12 -21 -11 -12 -10 -12 4 -1 22 16
34 9 58 -39 22 -43 26 -70 10 -70 -5 0 -10 7 -10 15 0 19 -8 19 -65 -1 -69
-23 -73 -13 -16 35 28 24 51 47 51 51 0 15 -60 -21 -71 -42 -6 -11 -13 -17
-16 -15 -2 3 1 16 8 29 7 12 14 29 15 36 5 30 14 41 29 36 8 -3 15 -9 15 -13z
m-400 -12 c0 -5 3 -8 8 -8 19 3 33 -2 27 -10 -3 -6 11 -13 32 -17 56 -10 61
-15 51 -51 l-9 -33 -83 0 -83 0 8 51 c4 28 13 56 18 63 6 7 8 16 4 20 -4 4 0
4 10 0 9 -3 17 -10 17 -15z m-242 -216 c14 -89 63 -200 112 -257 l33 -37 -59
-60 -58 -59 -23 28 c-40 47 -93 132 -119 189 -31 72 -44 120 -53 204 l-7 69
81 0 80 0 13 -77z m352 68 c0 -4 -19 -11 -42 -14 -24 -3 -59 -9 -79 -12 -31
-6 -37 -4 -42 14 -5 20 -2 21 79 21 46 0 84 -4 84 -9z m99 -23 c-48 -22 -64
-25 -71 -16 -13 21 -9 28 15 29 17 1 16 3 -8 8 -20 5 -3 7 49 7 l78 1 -63 -29z
m261 20 c0 -22 -24 -78 -33 -78 -5 0 -31 19 -59 41 -27 23 -51 39 -55 36 -3
-4 13 -28 36 -55 22 -28 41 -54 41 -58 0 -11 -77 -44 -84 -36 -3 3 -6 12 -5
21 0 12 3 11 9 -4 13 -30 12 3 -1 65 -16 76 -12 80 76 80 51 0 75 -4 75 -12z
m176 -34 c-10 -73 -42 -133 -105 -195 -40 -39 -76 -63 -115 -78 -31 -11 -58
-21 -60 -21 -4 0 -29 161 -25 163 2 2 20 10 41 19 l36 17 48 -61 c26 -34 50
-56 52 -49 2 7 -6 24 -19 39 l-24 27 27 -24 c36 -32 49 -19 17 17 l-24 27 27
-24 c15 -13 32 -21 39 -19 7 2 -15 25 -48 51 l-60 48 21 54 21 55 79 0 79 0
-7 -46z m183 -9 c-9 -69 -24 -116 -60 -185 -46 -89 -39 -88 -112 -30 l-65 52
30 48 c16 26 34 75 41 109 l12 61 81 0 81 0 -8 -55z m180 -14 c-15 -142 -67
-262 -164 -383 l-30 -38 -37 37 -38 37 22 24 23 23 -25 19 c-21 16 -23 22 -12
37 39 55 83 165 94 236 l13 77 80 0 81 0 -7 -69z m-734 -20 l-17 -70 -32 16
c-17 8 -33 17 -35 19 -2 1 18 28 45 58 26 31 50 54 52 51 2 -2 -3 -36 -13 -74z
m-152 38 c5 -17 -3 -25 -49 -45 -51 -23 -53 -25 -42 -49 l11 -25 50 36 c74 53
81 29 10 -40 l-58 -56 -28 32 c-23 28 -73 137 -65 143 6 4 113 22 139 24 19 1
28 -5 32 -20z m84 -24 c-23 -23 -38 -31 -43 -24 -4 7 0 15 8 20 8 4 26 17 39
28 38 31 36 15 -4 -24z m32 -173 c-9 -40 -19 -75 -22 -78 -10 -10 -74 16 -117
47 l-42 31 56 57 57 58 42 -21 43 -21 -17 -73z m51 -12 c0 -78 0 -80 -25 -80
-21 0 -23 3 -16 23 5 13 12 49 16 80 11 83 25 70 25 -23z m38 19 c2 -34 7 -70
13 -80 8 -16 6 -19 -11 -19 -18 0 -20 6 -20 80 0 93 15 109 18 19z m367 -79
c19 0 19 -14 0 -30 -12 -10 -24 -2 -70 44 -69 69 -64 96 5 32 27 -26 56 -46
65 -46z m-514 -21 c21 -7 39 -16 39 -21 0 -4 16 -8 35 -8 l35 0 0 -78 0 -79
-55 8 c-96 13 -195 54 -268 112 l-39 30 58 58 57 57 49 -34 c28 -18 67 -39 89
-45z m435 26 c46 -46 54 -58 44 -70 -17 -21 -23 -19 -38 14 -7 16 -28 44 -47
64 -28 29 -35 47 -18 47 1 0 28 -25 59 -55z m-17 -55 c38 -47 40 -43 -49 -89
-69 -36 -116 -51 -185 -60 l-55 -8 0 79 c0 75 1 78 23 78 13 0 27 4 33 8 5 5
27 14 49 20 22 6 56 23 75 36 l35 25 20 -24 c11 -13 35 -42 54 -65z m137 -15
c-3 -8 -12 -12 -21 -9 -18 7 -19 20 -2 38 10 12 13 12 20 -1 5 -8 6 -21 3 -28z
m-778 -36 c56 -49 172 -100 257 -112 l75 -11 0 -81 0 -81 -69 7 c-37 4 -88 13
-112 19 -68 18 -199 86 -256 132 l-53 43 57 57 c32 32 59 58 61 58 3 0 20 -14
40 -31z m745 16 c8 -19 -8 -28 -33 -20 -16 5 -17 9 -7 20 16 19 33 19 40 0z
m-40 -47 l15 -23 24 22 24 23 37 -38 37 -38 -62 -47 c-113 -85 -228 -132 -359
-146 l-69 -7 0 81 0 81 74 11 c73 10 205 62 227 89 17 20 34 17 52 -8z"/>
</g>
</svg>
