<?xml version="1.0" standalone="no"?>
<!DOCTYPE svg PUBLIC "-//W3C//DTD SVG 20010904//EN"
 "http://www.w3.org/TR/2001/REC-SVG-20010904/DTD/svg10.dtd">
<svg version="1.0" xmlns="http://www.w3.org/2000/svg"
 width="200.000000pt" height="200.000000pt" viewBox="0 0 200.000000 200.000000"
 preserveAspectRatio="xMidYMid meet">
<metadata>
Created by potrace 1.10, written by Peter Selinger 2001-2011
</metadata>
<g transform="translate(0.000000,200.000000) scale(0.100000,-0.100000)"
fill="#000000" stroke="none">
<path d="M292 1655 c-62 -19 -106 -57 -136 -117 l-26 -52 0 -490 c0 -548 -1
-534 71 -603 69 -66 37 -63 801 -63 l693 0 52 24 c63 30 107 87 123 159 8 36
10 198 8 517 -3 431 -4 468 -22 500 -26 49 -64 88 -111 113 -40 22 -44 22
-725 24 -552 2 -693 -1 -728 -12z m1431 -49 c43 -17 95 -78 102 -118 3 -18 5
-252 3 -519 l-3 -486 -27 -35 c-15 -19 -44 -44 -65 -54 -36 -18 -71 -19 -733
-19 l-695 0 -40 23 c-43 26 -64 50 -82 97 -8 21 -12 166 -12 505 -1 440 1 478
18 515 20 43 40 64 86 88 27 14 110 16 723 17 560 0 699 -3 725 -14z"/>
<path d="M316 1595 c-53 -19 -102 -69 -115 -118 -8 -30 -11 -179 -9 -503 l3
-460 28 -42 c15 -23 45 -51 67 -62 38 -19 57 -20 709 -20 449 0 679 4 698 11
35 13 79 54 101 94 15 26 17 83 20 470 3 310 0 456 -8 493 -14 65 -65 121
-126 140 -63 19 -1314 16 -1368 -3z m1394 -51 c61 -37 60 -25 60 -552 0 -477
0 -479 -22 -507 -44 -56 -31 -55 -750 -55 -623 0 -665 1 -697 18 -19 10 -43
34 -53 53 -17 32 -18 63 -16 506 3 461 3 472 24 500 40 54 18 53 747 53 611 0
682 -2 707 -16z"/>
<path d="M800 1459 l0 -31 63 4 62 3 3 -152 c1 -84 1 -153 -1 -153 -2 0 -59
56 -127 125 -68 69 -126 125 -129 125 -4 0 -58 -162 -121 -361 l-115 -360 -63
3 c-62 3 -62 3 -62 -24 l0 -28 105 0 105 0 0 25 c0 21 -5 25 -29 25 l-28 0 88
278 c49 152 90 280 92 283 1 4 66 -52 145 -124 l142 -131 0 -163 0 -163 -55 0
c-52 0 -55 -1 -55 -25 0 -25 1 -25 80 -25 l80 0 0 450 0 450 -90 0 -90 0 0
-31z m108 -353 c17 -6 22 -15 22 -42 0 -19 -2 -34 -5 -34 -7 0 -212 184 -237
212 -14 16 -15 24 -7 40 10 18 18 13 107 -75 54 -52 107 -97 120 -101z"/>
<path d="M1030 1040 l0 -450 75 0 c73 0 75 1 75 25 0 23 -3 25 -50 25 l-50 0
1 168 0 167 134 120 c73 66 137 121 142 122 4 1 46 -118 92 -265 46 -147 86
-273 89 -279 2 -8 -5 -13 -22 -13 -21 0 -26 -5 -26 -25 l0 -25 105 0 c105 0
105 0 105 25 0 23 -3 24 -66 27 l-66 3 -35 110 c-19 61 -71 222 -115 359 l-80
249 -129 -129 -129 -129 0 156 0 157 65 -6 65 -5 0 32 0 31 -90 0 -90 0 0
-450z m300 231 c0 -17 -234 -241 -252 -241 -5 0 -8 16 -8 35 0 25 4 35 16 35
9 0 63 45 120 101 99 96 124 110 124 70z"/>
<path d="M310 535 l0 -25 695 0 695 0 0 25 0 25 -695 0 -695 0 0 -25z"/>
</g>
</svg>
